<svg xmlns="http://www.w3.org/2000/svg" viewBox="0 0 22.15 22.15"><defs><style>.cls-1{fill:#4d4d4d;}</style></defs><title>Curso_icon</title><g id="Layer_2" data-name="Layer 2"><g id="guides"><path class="cls-1" d="M13.25,12.75c2.67-2.55,5.36-5.09,8-7.66a3,3,0,1,0-4.2-4.2C14.49,3.55,12,6.23,9.4,8.9c-.77.82-1.57,1.61-2.31,2.45l0,0a15.62,15.62,0,0,1,3.62,3.77,1,1,0,0,0,.13-.09C11.65,14.32,12.43,13.52,13.25,12.75Z"/><path class="cls-1" d="M5.74,12.7c-.06.07-.11.15-.16.22-.61,1-1.2,2-1.8,3l-1,1.75a14.89,14.89,0,0,1,1.74,1.81l1.79-1.08c1-.6,2-1.18,3-1.79l.13-.1A15.85,15.85,0,0,0,5.74,12.7Z"/><path class="cls-1" d="M1.7,18.9.05,21.64a.34.34,0,0,0,.46.46l2.7-1.63A14,14,0,0,0,1.7,18.9Z"/></g></g></svg>