<svg xmlns="http://www.w3.org/2000/svg" viewBox="0 0 29.33 23.33"><defs><style>.cls-1{fill:#4d4d4d;}.cls-2{fill:none;stroke:#4d4d4d;stroke-miterlimit:10;stroke-width:2px;}</style></defs><title>email_icon</title><g id="Layer_2" data-name="Layer 2"><g id="guides"><path class="cls-1" d="M25.33,2a2,2,0,0,1,2,2V19.33a2,2,0,0,1-2,2H4a2,2,0,0,1-2-2V4A2,2,0,0,1,4,2H25.33m0-2H4A4,4,0,0,0,0,4V19.33a4,4,0,0,0,4,4H25.33a4,4,0,0,0,4-4V4a4,4,0,0,0-4-4Z"/><path class="cls-2" d="M26.63,2.8,15.75,13.68a1.53,1.53,0,0,1-2.17,0L2.7,2.8a1,1,0,0,1,.71-1.71H25.92A1,1,0,0,1,26.63,2.8Z"/></g></g></svg>