<svg xmlns="http://www.w3.org/2000/svg" viewBox="0 0 324.09 77.85"><defs><style>.cls-1{fill:none;stroke:#f2f2f2;stroke-miterlimit:10;stroke-width:5px;}.cls-2{fill:#f2f2f2;}</style></defs><title>EP_logo_01</title><g id="Layer_2" data-name="Layer 2"><g id="Layer_2-2" data-name="Layer 2"><path class="cls-1" d="M7.85,66.85A5.36,5.36,0,0,1,2.5,61.5V7.85a5.35,5.35,0,0,1,8.14-4.57l44,26.83a5.34,5.34,0,0,1,0,9.13l-44,26.83A5.37,5.37,0,0,1,7.85,66.85ZM50.48,32.39Z"/><path class="cls-2" d="M105.63,32.41V7.24a.7.7,0,0,1,.7-.7H122.6a.7.7,0,0,1,.7.7V8a.7.7,0,0,1-.7.7H108.84a.7.7,0,0,0-.71.7v8.19a.71.71,0,0,0,.71.71h12.28a.7.7,0,0,1,.71.7v.73a.71.71,0,0,1-.71.71H108.84a.7.7,0,0,0-.71.7v9.15a.7.7,0,0,0,.71.7H123a.7.7,0,0,1,.7.7v.74a.7.7,0,0,1-.7.7H106.33A.7.7,0,0,1,105.63,32.41Z"/><path class="cls-2" d="M128.58,27.13a.71.71,0,0,1,.68.54c.77,2.88,2.46,4,5.59,4s4.73-1.7,4.73-3.55c0-5.53-12.26-1.62-12.26-9.15,0-3.17,2.48-5.46,6.72-5.46,3.85,0,6.45,1.47,7.24,5.15a.71.71,0,0,1-.69.86h-.82a.69.69,0,0,1-.69-.53c-.57-2.55-2.48-3.49-5.08-3.49-2.8,0-4.31,1.33-4.31,3.28,0,5.21,12.25,2,12.25,9.31,0,3.65-3.29,5.57-7.79,5.57-4.16,0-6.68-2.46-7.18-5.68a.7.7,0,0,1,.69-.82Z"/><path class="cls-2" d="M160.35,20a.69.69,0,0,1-.66-.5,5.52,5.52,0,0,0-5.54-4c-4.54,0-6.42,4.13-6.42,8.12s1.85,8.05,6.42,8.05a5.52,5.52,0,0,0,5.76-4.57.71.71,0,0,1,.69-.56h.91a.71.71,0,0,1,.68.88,7.71,7.71,0,0,1-8,6.24c-6.09,0-8.78-4.39-8.78-10,0-5.31,3.06-10.11,8.78-10.11,4.1,0,6.88,1.82,7.77,5.66a.7.7,0,0,1-.68.87Z"/><path class="cls-2" d="M165.56,23.55c0-5.57,2.95-10.07,8.85-10.07s8.86,4.46,8.86,10.07c0,6.06-3.51,10.08-8.86,10.08C169.54,33.55,165.56,30.23,165.56,23.55Zm8.85-8.08c-4.65,0-6.49,4-6.49,8.08,0,4.76,2.25,8.09,6.49,8.09,4.65,0,6.5-4,6.5-8.09C180.87,19.05,179.1,15.47,174.41,15.47Z"/><path class="cls-2" d="M187.66,32.41V7.24a.7.7,0,0,1,.7-.7h.81a.7.7,0,0,1,.7.7V32.41a.7.7,0,0,1-.7.7h-.81A.7.7,0,0,1,187.66,32.41Z"/><path class="cls-2" d="M204.3,22a11.43,11.43,0,0,0,2.92-.63c.74-.33.81-1.33.81-2,0-2.26-1.33-3.88-4.76-3.88-2.89,0-4.92.89-5.49,3.78a.68.68,0,0,1-.68.54h-.86a.7.7,0,0,1-.69-.82c.66-3.91,3.85-5.49,7.76-5.49s6.94,1.51,6.94,5.94V29.83c0,1.44.3,2,1.48,1.72a.7.7,0,0,1,.84.68v.29a.69.69,0,0,1-.5.67,3.95,3.95,0,0,1-2.23.11c-1.48-.23-1.73-1.52-1.77-2.85A9.39,9.39,0,0,1,201,33.63c-3.36,0-6.39-1.81-6.39-5.5,0-3.21,2.22-5.17,6.68-5.76Zm3.73,2.1a.7.7,0,0,0-.9-.67,21.56,21.56,0,0,1-4.82.74c-3.36.26-5.39,1.48-5.39,4.06,0,2.33,2,3.44,4.14,3.44,3.5,0,7-1.7,7-5.58Z"/><path class="cls-2" d="M241.76,6.54h.81a.7.7,0,0,1,.7.7V32.41a.7.7,0,0,1-.7.7h-.81a.7.7,0,0,1-.7-.7V29.75H241a7.71,7.71,0,0,1-6.65,3.88c-6.16,0-8.63-4.39-8.63-10,0-5.35,2.69-10.11,8.52-10.11a7.93,7.93,0,0,1,6.83,3.58V7.24A.7.7,0,0,1,241.76,6.54Zm-7.16,8.93c-4.58,0-6.72,3.88-6.53,8.67s2.8,7.5,6.53,7.5c4.17,0,6.46-3.55,6.46-8.16C241.06,19.16,238.62,15.47,234.6,15.47Z"/><path class="cls-2" d="M250.11,24.07c0,4.32,2.28,7.57,6.52,7.57a5.6,5.6,0,0,0,5.65-3.89.73.73,0,0,1,.68-.51h1a.71.71,0,0,1,.66,1,7.8,7.8,0,0,1-7.94,5.43c-6.12,0-8.78-4.36-8.78-10s3.32-10.15,8.78-10.15c5.06,0,8.22,3.47,8.41,9.88a.7.7,0,0,1-.71.71H254.07a.93.93,0,0,1-.93-.91h0a.93.93,0,0,1,.93-.94H262a.7.7,0,0,0,.7-.77c-.26-3.36-2.31-6-6-6C250.15,15.6,250.11,23.33,250.11,24.07Z"/><path class="cls-2" d="M105.51,69.33V44.16a.7.7,0,0,1,.71-.7h9c6.9,0,8.67,3.43,8.67,7.41,0,6-5.27,7.42-10.18,7.42h-5a.71.71,0,0,0-.71.7V69.33a.7.7,0,0,1-.7.7h-1.1A.71.71,0,0,1,105.51,69.33Zm8.27-13.18c4.69,0,7.6-1,7.6-5.46,0-3.32-2.14-5.09-6.86-5.09h-5.79a.7.7,0,0,0-.71.7v9.15a.7.7,0,0,0,.71.7Z"/><path class="cls-2" d="M129.46,70h-.81a.71.71,0,0,1-.7-.7V51.61a.71.71,0,0,1,.7-.7h.81a.71.71,0,0,1,.71.7v2.88h.07c1.12-2.81,2.74-3.91,5.48-4.07a.7.7,0,0,1,.76.7v1a.7.7,0,0,1-.65.7c-4.45.22-5.66,3.77-5.66,7.85v8.68A.71.71,0,0,1,129.46,70Z"/><path class="cls-2" d="M138.21,60.47c0-5.57,2.95-10.08,8.86-10.08s8.86,4.47,8.86,10.08c0,6-3.51,10.08-8.86,10.08C142.2,70.47,138.21,67.15,138.21,60.47Zm8.86-8.08c-4.65,0-6.5,4-6.5,8.08,0,4.76,2.25,8.08,6.5,8.08,4.65,0,6.49-4,6.49-8.08C153.53,56,151.76,52.39,147.07,52.39Z"/><path class="cls-2" d="M175.45,50.91h.81a.7.7,0,0,1,.7.7V68.18c0,5.13-1.7,9.67-9,9.67-4.89,0-7.29-2.44-7.92-4.58a.71.71,0,0,1,.68-.92h1a.7.7,0,0,1,.67.46c.81,2.49,3.12,3,5.59,3,5.11,0,6.49-3.21,6.72-6.85a.7.7,0,0,0-1.16-.58,8.36,8.36,0,0,1-5.63,2.12c-5.83,0-8.53-4.77-8.53-10.12,0-5.64,2.48-10,8.64-10a7.7,7.7,0,0,1,6.64,3.88h.08V51.61A.7.7,0,0,1,175.45,50.91Zm-7.16,1.48c-3.73,0-6.5,2.69-6.54,7.49s2,8.67,6.54,8.67c4,0,6.46-3.69,6.46-8C174.75,55.93,172.46,52.39,168.29,52.39Z"/><path class="cls-2" d="M184.15,70h-.81a.71.71,0,0,1-.7-.7V51.61a.71.71,0,0,1,.7-.7h.81a.71.71,0,0,1,.71.7v2.88h.07c1.12-2.81,2.74-3.91,5.48-4.07a.7.7,0,0,1,.76.7v1a.7.7,0,0,1-.65.7c-4.45.22-5.66,3.77-5.66,7.85v8.68A.71.71,0,0,1,184.15,70Z"/><path class="cls-2" d="M203.6,58.88a11.1,11.1,0,0,0,2.92-.62c.74-.34.81-1.33.81-2,0-2.25-1.33-3.87-4.76-3.87-2.89,0-4.93.88-5.49,3.77a.69.69,0,0,1-.68.55h-.86a.72.72,0,0,1-.7-.83c.67-3.9,3.86-5.49,7.77-5.49s6.93,1.52,6.93,6v10.4c0,1.44.31,2,1.49,1.72a.71.71,0,0,1,.84.69v.29a.69.69,0,0,1-.5.67,4.59,4.59,0,0,1-1.23.21,4,4,0,0,1-1-.11c-1.48-.22-1.74-1.51-1.77-2.84a9.39,9.39,0,0,1-7.13,3.18c-3.35,0-6.38-1.81-6.38-5.5,0-3.21,2.21-5.17,6.68-5.76Zm3.73,2.1a.7.7,0,0,0-.9-.67,21,21,0,0,1-4.82.75c-3.36.26-5.39,1.48-5.39,4.06,0,2.33,2,3.43,4.13,3.43,3.51,0,7-1.7,7-5.57Z"/><path class="cls-2" d="M216.55,70h-.81a.71.71,0,0,1-.7-.7V51.61a.71.71,0,0,1,.7-.7h.81a.71.71,0,0,1,.71.7v2.18h.07a6.53,6.53,0,0,1,5.9-3.4c2.87,0,4.23,1.09,5.08,2.57a.7.7,0,0,0,1.16.1,6.67,6.67,0,0,1,5.61-2.67c5.21,0,5.94,3.73,5.94,7.57V69.33a.7.7,0,0,1-.7.7h-.81a.7.7,0,0,1-.7-.7V56.82c0-2.73-1-4.43-4.1-4.43a5.32,5.32,0,0,0-4.32,2.18c-.95,1.25-1.25,3.58-1.25,5.16v9.6a.7.7,0,0,1-.7.7h-.81a.7.7,0,0,1-.7-.7V56.82c0-2.73-1-4.43-4.1-4.43a5.32,5.32,0,0,0-4.32,2.18c-1,1.25-1.25,3.58-1.25,5.16v9.6A.71.71,0,0,1,216.55,70Z"/><path class="cls-2" d="M254.86,58.88a11.1,11.1,0,0,0,2.92-.62c.73-.34.81-1.33.81-2,0-2.25-1.33-3.87-4.76-3.87-2.89,0-4.93.88-5.49,3.77a.7.7,0,0,1-.68.55h-.86a.71.71,0,0,1-.7-.83c.66-3.9,3.86-5.49,7.76-5.49s6.94,1.52,6.94,6v10.4c0,1.44.31,2,1.49,1.72a.71.71,0,0,1,.84.69v.29a.69.69,0,0,1-.5.67,4.6,4.6,0,0,1-1.24.21,4,4,0,0,1-1-.11c-1.48-.22-1.74-1.51-1.77-2.84a9.39,9.39,0,0,1-7.13,3.18c-3.36,0-6.38-1.81-6.38-5.5,0-3.21,2.21-5.17,6.68-5.76Zm3.73,2.1a.7.7,0,0,0-.9-.67,21,21,0,0,1-4.82.75c-3.36.26-5.39,1.48-5.39,4.06,0,2.33,2,3.43,4.13,3.43,3.51,0,7-1.7,7-5.57Z"/><path class="cls-2" d="M280.66,56.93a.72.72,0,0,1-.67-.5,5.52,5.52,0,0,0-5.53-4c-4.54,0-6.43,4.13-6.43,8.12s1.85,8,6.43,8A5.51,5.51,0,0,0,280.21,64a.72.72,0,0,1,.69-.57h.91a.71.71,0,0,1,.68.89,7.71,7.71,0,0,1-8,6.24c-6.09,0-8.79-4.4-8.79-10,0-5.32,3.07-10.12,8.79-10.12,4.09,0,6.87,1.83,7.77,5.67a.72.72,0,0,1-.69.87ZM270.38,76.34a.6.6,0,0,1,.74-.31,6,6,0,0,0,1.86.38c1.07,0,2.44-.48,2.44-1.73,0-1-.93-1.44-1.85-1.44a6.58,6.58,0,0,0-1.62.29l-.56-.48,2-2.73A.7.7,0,0,1,274,70h1.09l-1.74,2.18a5.71,5.71,0,0,1,1.33-.23,2.72,2.72,0,0,1,2.84,1.92c.48,2.66-1.7,3.77-4.06,3.77a8.84,8.84,0,0,1-2.68-.47.61.61,0,0,1-.36-.86Z"/><path class="cls-2" d="M295.9,58.88a11,11,0,0,0,2.91-.62c.74-.34.81-1.33.81-2,0-2.25-1.32-3.87-4.76-3.87-2.89,0-4.92.88-5.48,3.77a.71.71,0,0,1-.69.55h-.86a.71.71,0,0,1-.69-.83c.66-3.9,3.85-5.49,7.76-5.49s6.94,1.52,6.94,6v10.4c0,1.44.3,2,1.48,1.72a.71.71,0,0,1,.84.69v.29a.69.69,0,0,1-.5.67,4.59,4.59,0,0,1-1.23.21,4.09,4.09,0,0,1-1-.11c-1.47-.22-1.73-1.51-1.77-2.84a9.36,9.36,0,0,1-7.12,3.18c-3.36,0-6.39-1.81-6.39-5.5,0-3.21,2.22-5.17,6.68-5.76Zm3.72,2.1a.7.7,0,0,0-.9-.67,20.94,20.94,0,0,1-4.82.75c-3.35.26-5.38,1.48-5.38,4.06,0,2.33,2,3.43,4.13,3.43,3.51,0,7-1.7,7-5.57ZM289.9,48.4a.62.62,0,0,1-.6-.75,5.16,5.16,0,0,1,.62-1.43,3.14,3.14,0,0,1,3.25-1.32c1.36.25,3.24,1.58,4.54,1.58.89,0,1.3-.67,1.51-1.41a.61.61,0,0,1,.59-.43h.2a.61.61,0,0,1,.59.76l-.15.58a.56.56,0,0,1,0,.12,3,3,0,0,1-2.7,2.15c-2,0-3.7-1.66-5.39-1.66-1,0-1.39.66-1.68,1.43a.61.61,0,0,1-.57.38Z"/><path class="cls-2" d="M306.38,60.47c0-5.57,2.95-10.08,8.85-10.08s8.86,4.47,8.86,10.08c0,6-3.5,10.08-8.86,10.08C310.36,70.47,306.38,67.15,306.38,60.47Zm8.85-8.08c-4.65,0-6.49,4-6.49,8.08,0,4.76,2.25,8.08,6.49,8.08,4.65,0,6.5-4,6.5-8.08C321.69,56,319.92,52.39,315.23,52.39Z"/></g></g></svg>