<svg xmlns="http://www.w3.org/2000/svg" xmlns:xlink="http://www.w3.org/1999/xlink" viewBox="0 0 69.45 69.45"><defs><style>.cls-1,.cls-2{fill:none;}.cls-2{stroke:#666;stroke-miterlimit:10;stroke-width:5px;}.cls-3{clip-path:url(#clip-path);}.cls-4{fill:#ff1744;}.cls-5{fill:#ffeb57;}.cls-6{fill:#2ac7f2;}</style><clipPath id="clip-path"><path class="cls-1" d="M24.07,53.86a3.05,3.05,0,0,1-3.05-3V20.19a3,3,0,0,1,4.64-2.61L50.79,32.89a3.05,3.05,0,0,1,0,5.21L25.66,53.41A3,3,0,0,1,24.07,53.86ZM48.4,34.19Z"/></clipPath></defs><title>EP_logo_03</title><g id="Layer_2" data-name="Layer 2"><g id="Layer_2-2" data-name="Layer 2"><path class="cls-2" d="M24.07,53.86a3.05,3.05,0,0,1-3.05-3V20.19a3,3,0,0,1,4.64-2.61L50.79,32.89a3.05,3.05,0,0,1,0,5.21L25.66,53.41A3,3,0,0,1,24.07,53.86Z"/><g class="cls-3"><rect class="cls-4" x="17.89" y="-5.57" width="15.02" height="50.45" transform="translate(28.75 -12.29) rotate(58.25)"/><rect class="cls-5" x="25.79" y="7.2" width="15.02" height="50.45" transform="translate(43.35 -12.95) rotate(58.25)"/><rect class="cls-6" x="32.41" y="22.27" width="20.42" height="50.45" transform="translate(60.58 -13.74) rotate(58.25)"/></g></g></g></svg>