<svg xmlns="http://www.w3.org/2000/svg" viewBox="0 0 30.34 30.34"><defs><style>.cls-1{fill:#4d4d4d;}</style></defs><title>Git_logo</title><g id="Layer_2" data-name="Layer 2"><g id="guides"><path class="cls-1" d="M29.77,13.82,16.52.57a2,2,0,0,0-2.76,0L11,3.32,14.5,6.81a2.33,2.33,0,0,1,2.94,3l3.36,3.36a2.33,2.33,0,1,1-1.39,1.31l-3.14-3.13v8.25a2.37,2.37,0,0,1,.61.44,2.32,2.32,0,1,1-3.28,0,2.42,2.42,0,0,1,.76-.51V11.16a2.23,2.23,0,0,1-.76-.5,2.32,2.32,0,0,1-.5-2.55L9.66,4.67.57,13.76a2,2,0,0,0,0,2.76L13.82,29.77a2,2,0,0,0,2.76,0L29.77,16.58A2,2,0,0,0,29.77,13.82Z"/></g></g></svg>