<svg xmlns="http://www.w3.org/2000/svg" viewBox="0 0 87.73 46.32"><defs><style>.cls-1{fill:#f2f2f2;}</style></defs><title>HUOL_logo</title><g id="Layer_2" data-name="Layer 2"><g id="Layer_2-2" data-name="Layer 2"><path class="cls-1" d="M4.7,2.85V9.49H14.83V2.85A3.11,3.11,0,0,1,15.47.71,2.18,2.18,0,0,1,17.15,0a2.24,2.24,0,0,1,1.72.7,3.06,3.06,0,0,1,.65,2.15V21.11a3.09,3.09,0,0,1-.66,2.15,2.24,2.24,0,0,1-1.71.71,2.14,2.14,0,0,1-1.69-.72,3.18,3.18,0,0,1-.63-2.14v-7.8H4.7v7.8A3.09,3.09,0,0,1,4,23.26,2.24,2.24,0,0,1,2.32,24a2.14,2.14,0,0,1-1.69-.72A3.18,3.18,0,0,1,0,21.11V2.85A3.21,3.21,0,0,1,.62.71,2.17,2.17,0,0,1,2.32,0,2.24,2.24,0,0,1,4,.7,3.06,3.06,0,0,1,4.7,2.85Z"/><path class="cls-1" d="M23.3,14V2.85A3.16,3.16,0,0,1,23.94.71,2.18,2.18,0,0,1,25.63,0a2.22,2.22,0,0,1,1.73.71A3.11,3.11,0,0,1,28,2.85V14.24a10.4,10.4,0,0,0,.43,3.25,3.77,3.77,0,0,0,1.55,2,5.63,5.63,0,0,0,3.09.72c1.84,0,3.13-.49,3.89-1.47a7.13,7.13,0,0,0,1.14-4.43V2.85A3.15,3.15,0,0,1,38.73.7a2.18,2.18,0,0,1,1.7-.7,2.23,2.23,0,0,1,1.71.7,3.06,3.06,0,0,1,.66,2.15V14a16.63,16.63,0,0,1-.53,4.54,7.08,7.08,0,0,1-2,3.19,7.9,7.9,0,0,1-2.94,1.71,12.85,12.85,0,0,1-3.92.54,16.25,16.25,0,0,1-4.6-.58,7.26,7.26,0,0,1-3.15-1.79,7.19,7.19,0,0,1-1.79-3.1A15.66,15.66,0,0,1,23.3,14Z"/><path class="cls-1" d="M56.77,0A12.4,12.4,0,0,1,63,1.46a9.5,9.5,0,0,1,3.92,4.16A14.26,14.26,0,0,1,68.2,12a15.69,15.69,0,0,1-.72,4.89,10.74,10.74,0,0,1-2.19,3.81,9.6,9.6,0,0,1-3.57,2.46,14,14,0,0,1-9.72,0,9.71,9.71,0,0,1-3.59-2.48,10.48,10.48,0,0,1-2.17-3.84,15.45,15.45,0,0,1-.74-4.85A15,15,0,0,1,46.27,7a10.54,10.54,0,0,1,2.22-3.8A9.6,9.6,0,0,1,52,.83,12.8,12.8,0,0,1,56.77,0Zm6.67,11.92a10.81,10.81,0,0,0-.82-4.41,6.2,6.2,0,0,0-2.34-2.82,6.79,6.79,0,0,0-6.11-.43A5.72,5.72,0,0,0,52.12,5.8a7.3,7.3,0,0,0-1.36,2.59,11.71,11.71,0,0,0-.5,3.53,12,12,0,0,0,.5,3.57,7.2,7.2,0,0,0,1.41,2.65,5.79,5.79,0,0,0,2.08,1.57,6.53,6.53,0,0,0,5.9-.38,6.19,6.19,0,0,0,2.4-2.78A10.68,10.68,0,0,0,63.44,11.92Z"/><path class="cls-1" d="M75.52,2.85V19.71H85a2.52,2.52,0,0,1,1.75.56,1.82,1.82,0,0,1,.61,1.39A1.75,1.75,0,0,1,86.8,23a2.56,2.56,0,0,1-1.76.53H73.71a3,3,0,0,1-2.21-.68,3,3,0,0,1-.67-2.2V2.85A3.11,3.11,0,0,1,71.47.71,2.18,2.18,0,0,1,73.15,0a2.24,2.24,0,0,1,1.72.7A3.06,3.06,0,0,1,75.52,2.85Z"/><path class="cls-1" d="M16.78,32.19v1.42h2.15V32.19a.65.65,0,0,1,.14-.45.51.51,0,0,1,.72,0,.61.61,0,0,1,.14.45v3.89a.62.62,0,0,1-.14.46.51.51,0,0,1-.72,0,.7.7,0,0,1-.14-.46V34.42H16.78v1.66a.67.67,0,0,1-.14.46.5.5,0,0,1-.37.15.46.46,0,0,1-.36-.15.7.7,0,0,1-.13-.46V32.19a.65.65,0,0,1,.13-.45.46.46,0,0,1,.36-.15.5.5,0,0,1,.37.15A.65.65,0,0,1,16.78,32.19Z"/><path class="cls-1" d="M24.38,34.82a2.06,2.06,0,0,1-.13.76,1.61,1.61,0,0,1-.95,1,2,2,0,0,1-.75.13,2.18,2.18,0,0,1-.75-.13,1.56,1.56,0,0,1-.58-.39,1.64,1.64,0,0,1-.37-.59,2.29,2.29,0,0,1,0-1.52,1.69,1.69,0,0,1,.37-.59,1.54,1.54,0,0,1,.58-.38,2.23,2.23,0,0,1,1.5,0,1.71,1.71,0,0,1,.59.38,1.66,1.66,0,0,1,.36.6A2,2,0,0,1,24.38,34.82Zm-.92,0a1.35,1.35,0,0,0-.25-.87.79.79,0,0,0-.66-.32.87.87,0,0,0-.48.14,1,1,0,0,0-.31.42,1.54,1.54,0,0,0-.11.63,1.74,1.74,0,0,0,.1.63.9.9,0,0,0,.32.41.76.76,0,0,0,.48.15.79.79,0,0,0,.66-.32A1.35,1.35,0,0,0,23.46,34.82Z"/><path class="cls-1" d="M28.06,35.49a1,1,0,0,1-.73,1.06,2.5,2.5,0,0,1-.88.14,2.19,2.19,0,0,1-.85-.15,1.26,1.26,0,0,1-.52-.38.77.77,0,0,1-.17-.46.34.34,0,0,1,.11-.25.33.33,0,0,1,.27-.11.29.29,0,0,1,.22.07.53.53,0,0,1,.15.2A1.08,1.08,0,0,0,26,36a1,1,0,0,0,.54.12A.79.79,0,0,0,27,36a.34.34,0,0,0,.18-.28.37.37,0,0,0-.19-.35,1.84,1.84,0,0,0-.6-.21,5.84,5.84,0,0,1-.77-.25,1.34,1.34,0,0,1-.48-.34A.78.78,0,0,1,25,34a1,1,0,0,1,.17-.53,1.18,1.18,0,0,1,.48-.39,1.87,1.87,0,0,1,.78-.14A2.51,2.51,0,0,1,27,33a1.36,1.36,0,0,1,.47.2.85.85,0,0,1,.29.27.51.51,0,0,1,.1.3.34.34,0,0,1-.1.26.4.4,0,0,1-.3.1.36.36,0,0,1-.24-.08,1.34,1.34,0,0,1-.23-.24.88.88,0,0,0-.25-.22.8.8,0,0,0-.38-.08.73.73,0,0,0-.41.11.31.31,0,0,0-.17.26.29.29,0,0,0,.12.24,1,1,0,0,0,.33.15l.56.15a2.81,2.81,0,0,1,.7.25,1.08,1.08,0,0,1,.41.34A.71.71,0,0,1,28.06,35.49Z"/><path class="cls-1" d="M29.69,33.47v.11a1.79,1.79,0,0,1,.54-.47,1.28,1.28,0,0,1,.63-.15,1.44,1.44,0,0,1,.78.22,1.53,1.53,0,0,1,.56.64,2.2,2.2,0,0,1,.21,1,2.35,2.35,0,0,1-.12.77,1.73,1.73,0,0,1-.33.6,1.48,1.48,0,0,1-.49.37,1.39,1.39,0,0,1-.61.13,1.24,1.24,0,0,1-.66-.16,1.8,1.8,0,0,1-.51-.46v1.38c0,.4-.15.6-.44.6a.37.37,0,0,1-.35-.15,1.12,1.12,0,0,1-.08-.46v-4a.64.64,0,0,1,.11-.4.42.42,0,0,1,.32-.12.39.39,0,0,1,.31.13A.5.5,0,0,1,29.69,33.47Zm1.8,1.34a1.69,1.69,0,0,0-.11-.63,1,1,0,0,0-.31-.4.77.77,0,0,0-.44-.14.83.83,0,0,0-.64.3,1.59,1.59,0,0,0,0,1.74.81.81,0,0,0,.64.3.73.73,0,0,0,.43-.13.92.92,0,0,0,.31-.4A1.56,1.56,0,0,0,31.49,34.81Z"/><path class="cls-1" d="M33.61,32.53a.48.48,0,0,1-.33-.12.42.42,0,0,1-.13-.33.39.39,0,0,1,.14-.32.44.44,0,0,1,.32-.13.54.54,0,0,1,.32.11.42.42,0,0,1,.13.34.42.42,0,0,1-.13.33A.47.47,0,0,1,33.61,32.53Zm.45.95v2.65a.59.59,0,0,1-.13.42.42.42,0,0,1-.33.14.45.45,0,0,1-.33-.14.66.66,0,0,1-.12-.42V33.5a.61.61,0,0,1,.12-.41A.44.44,0,0,1,33.6,33a.42.42,0,0,1,.33.13A.53.53,0,0,1,34.06,33.48Z"/><path class="cls-1" d="M35.06,33h.1v-.56a2.82,2.82,0,0,1,0-.34.48.48,0,0,1,.06-.22.39.39,0,0,1,.16-.15.4.4,0,0,1,.22-.06.45.45,0,0,1,.32.13.45.45,0,0,1,.12.21,1.84,1.84,0,0,1,0,.36V33h.34a.45.45,0,0,1,.3.09.3.3,0,0,1,.1.24.25.25,0,0,1-.15.25.87.87,0,0,1-.41.08h-.18v1.69a2.63,2.63,0,0,0,0,.33.37.37,0,0,0,.08.19.25.25,0,0,0,.21.07l.22,0,.22,0A.28.28,0,0,1,37,36a.29.29,0,0,1,.09.22.36.36,0,0,1-.25.34,1.58,1.58,0,0,1-.69.12,1.3,1.3,0,0,1-.66-.14.72.72,0,0,1-.29-.41,3,3,0,0,1-.07-.68V33.7H35a.4.4,0,0,1-.3-.1.29.29,0,0,1-.1-.23.28.28,0,0,1,.11-.24A.48.48,0,0,1,35.06,33Z"/><path class="cls-1" d="M39.77,36.17a3,3,0,0,1-.64.39,1.75,1.75,0,0,1-.7.13,1.38,1.38,0,0,1-.62-.14,1,1,0,0,1-.41-.38,1,1,0,0,1-.15-.52.93.93,0,0,1,.24-.64,1.19,1.19,0,0,1,.66-.36l.43-.09.6-.13.53-.14a1,1,0,0,0-.14-.53.65.65,0,0,0-.54-.17,1.09,1.09,0,0,0-.53.1.91.91,0,0,0-.3.29,2.52,2.52,0,0,1-.18.26.29.29,0,0,1-.22.06.45.45,0,0,1-.27-.1.35.35,0,0,1-.11-.26.82.82,0,0,1,.17-.47,1.26,1.26,0,0,1,.54-.37A2.35,2.35,0,0,1,39,33a2.68,2.68,0,0,1,.95.14.91.91,0,0,1,.49.45,1.91,1.91,0,0,1,.15.82c0,.22,0,.4,0,.55v.5a2,2,0,0,0,.08.54,1.62,1.62,0,0,1,.09.37.31.31,0,0,1-.13.25.44.44,0,0,1-.3.12.38.38,0,0,1-.28-.13A2.42,2.42,0,0,1,39.77,36.17Zm-.06-1.33a5.3,5.3,0,0,1-.58.16l-.54.12a.85.85,0,0,0-.28.15.39.39,0,0,0-.13.32.47.47,0,0,0,.15.35.6.6,0,0,0,.42.15,1.06,1.06,0,0,0,.5-.12.79.79,0,0,0,.34-.31,1.47,1.47,0,0,0,.12-.69Z"/><path class="cls-1" d="M41.55,36.13v-4a.62.62,0,0,1,.12-.42.42.42,0,0,1,.33-.14.46.46,0,0,1,.34.14.62.62,0,0,1,.13.42v4a.62.62,0,0,1-.13.42.46.46,0,0,1-.34.14.45.45,0,0,1-.33-.14A.66.66,0,0,1,41.55,36.13Z"/><path class="cls-1" d="M45.48,34.57V32.19a.65.65,0,0,1,.14-.45.46.46,0,0,1,.36-.15.48.48,0,0,1,.37.15.65.65,0,0,1,.13.45v2.43a1.94,1.94,0,0,0,.1.69.78.78,0,0,0,.32.43,1.15,1.15,0,0,0,.66.16,1,1,0,0,0,.83-.32,1.51,1.51,0,0,0,.24-.94V32.19a.65.65,0,0,1,.14-.45.51.51,0,0,1,.72,0,.61.61,0,0,1,.14.45v2.38a3.33,3.33,0,0,1-.11,1,1.41,1.41,0,0,1-.43.68,1.56,1.56,0,0,1-.62.37,3,3,0,0,1-.84.11,3.47,3.47,0,0,1-1-.12,1.51,1.51,0,0,1-.67-.38,1.44,1.44,0,0,1-.38-.66A3.05,3.05,0,0,1,45.48,34.57Z"/><path class="cls-1" d="M51.48,33.46v.11A1.76,1.76,0,0,1,52,33.1a1.59,1.59,0,0,1,.66-.14,1.36,1.36,0,0,1,.65.15,1,1,0,0,1,.43.45,1.09,1.09,0,0,1,.12.36,3.43,3.43,0,0,1,0,.5v1.71a.64.64,0,0,1-.13.42.42.42,0,0,1-.33.14.44.44,0,0,1-.33-.14.6.6,0,0,1-.13-.42V34.6a1.44,1.44,0,0,0-.13-.69.51.51,0,0,0-.5-.24.75.75,0,0,0-.45.14.85.85,0,0,0-.29.4,2.7,2.7,0,0,0-.07.77v1.15a.57.57,0,0,1-.13.42.45.45,0,0,1-.33.14.44.44,0,0,1-.33-.14.66.66,0,0,1-.13-.42V33.48a.58.58,0,0,1,.12-.4.4.4,0,0,1,.31-.12.42.42,0,0,1,.22,0,.41.41,0,0,1,.15.17A.61.61,0,0,1,51.48,33.46Z"/><path class="cls-1" d="M55.28,32.53a.48.48,0,0,1-.33-.12.42.42,0,0,1-.14-.33.42.42,0,0,1,.14-.32.44.44,0,0,1,.33-.13.51.51,0,0,1,.31.11.43.43,0,0,1,.14.34.42.42,0,0,1-.13.33A.47.47,0,0,1,55.28,32.53Zm.45.95v2.65a.59.59,0,0,1-.13.42.45.45,0,0,1-.33.14.42.42,0,0,1-.33-.14.6.6,0,0,1-.13-.42V33.5a.56.56,0,0,1,.13-.41.42.42,0,0,1,.33-.13.44.44,0,0,1,.33.13A.53.53,0,0,1,55.73,33.48Z"/><path class="cls-1" d="M57.33,33.53l.74,2.08.8-2.17a1.64,1.64,0,0,1,.19-.38.33.33,0,0,1,.27-.1.4.4,0,0,1,.3.11.38.38,0,0,1,.12.28.39.39,0,0,1,0,.14.88.88,0,0,1,0,.15l-.06.16L58.73,36l-.09.24a1.36,1.36,0,0,1-.13.24.55.55,0,0,1-.18.16.53.53,0,0,1-.26.06.5.5,0,0,1-.31-.09.6.6,0,0,1-.17-.19c0-.08-.1-.21-.19-.42l-.87-2.17-.06-.16a.71.71,0,0,1-.08-.31.32.32,0,0,1,.06-.18A.39.39,0,0,1,56.6,33a.42.42,0,0,1,.22,0,.35.35,0,0,1,.32.13A1.75,1.75,0,0,1,57.33,33.53Z"/><path class="cls-1" d="M62.89,35.05h-1.8a1.09,1.09,0,0,0,.13.55.87.87,0,0,0,.32.36.89.89,0,0,0,.45.12,1,1,0,0,0,.3,0,.8.8,0,0,0,.27-.12,1.3,1.3,0,0,0,.23-.18c.07-.06.17-.14.28-.25a.32.32,0,0,1,.2-.06.3.3,0,0,1,.23.08.26.26,0,0,1,.09.21.59.59,0,0,1-.1.3,1,1,0,0,1-.29.31,1.57,1.57,0,0,1-.5.26,2,2,0,0,1-.68.1,1.72,1.72,0,0,1-1.87-1.87,2.29,2.29,0,0,1,.12-.76,1.66,1.66,0,0,1,.36-.6,1.54,1.54,0,0,1,.57-.38A2,2,0,0,1,62,33a1.68,1.68,0,0,1,.92.23,1.47,1.47,0,0,1,.58.58,1.54,1.54,0,0,1,.19.74c0,.23-.06.38-.19.45A1.4,1.4,0,0,1,62.89,35.05Zm-1.8-.52h1.67a1.16,1.16,0,0,0-.26-.71.78.78,0,0,0-.58-.23.74.74,0,0,0-.56.23A1.18,1.18,0,0,0,61.09,34.53Z"/><path class="cls-1" d="M65.33,35.36v.77a.57.57,0,0,1-.13.42.45.45,0,0,1-.33.14.42.42,0,0,1-.33-.14.59.59,0,0,1-.13-.42V33.57c0-.41.15-.61.45-.61a.37.37,0,0,1,.33.14.82.82,0,0,1,.11.43,1.57,1.57,0,0,1,.34-.43A.67.67,0,0,1,66.1,33a1.14,1.14,0,0,1,.56.14.43.43,0,0,1,.27.38.34.34,0,0,1-.11.28.38.38,0,0,1-.25.11l-.25-.06a1.16,1.16,0,0,0-.34-.06.52.52,0,0,0-.33.1.77.77,0,0,0-.2.32,2.14,2.14,0,0,0-.09.49A7,7,0,0,0,65.33,35.36Z"/><path class="cls-1" d="M70.22,35.49a1,1,0,0,1-.73,1.06,2.5,2.5,0,0,1-.88.14,2.19,2.19,0,0,1-.85-.15,1.26,1.26,0,0,1-.52-.38.77.77,0,0,1-.17-.46.34.34,0,0,1,.11-.25.33.33,0,0,1,.27-.11.29.29,0,0,1,.22.07.53.53,0,0,1,.15.2,1.08,1.08,0,0,0,.34.36,1,1,0,0,0,.54.12.79.79,0,0,0,.45-.12.34.34,0,0,0,.18-.28.37.37,0,0,0-.19-.35,1.84,1.84,0,0,0-.6-.21,5.84,5.84,0,0,1-.77-.25,1.34,1.34,0,0,1-.48-.34.78.78,0,0,1-.18-.52,1,1,0,0,1,.17-.53,1.18,1.18,0,0,1,.48-.39,1.87,1.87,0,0,1,.78-.14,2.51,2.51,0,0,1,.64.07,1.36,1.36,0,0,1,.47.2.85.85,0,0,1,.29.27.51.51,0,0,1,.1.3.34.34,0,0,1-.1.26.4.4,0,0,1-.3.1.36.36,0,0,1-.24-.08,1.34,1.34,0,0,1-.23-.24.88.88,0,0,0-.25-.22.8.8,0,0,0-.38-.08.73.73,0,0,0-.41.11.31.31,0,0,0-.17.26.29.29,0,0,0,.12.24,1,1,0,0,0,.33.15l.56.15a2.81,2.81,0,0,1,.7.25,1.08,1.08,0,0,1,.41.34A.71.71,0,0,1,70.22,35.49Z"/><path class="cls-1" d="M71.46,32.53a.47.47,0,0,1-.32-.12.39.39,0,0,1-.14-.33.42.42,0,0,1,.14-.32.44.44,0,0,1,.32-.13.52.52,0,0,1,.32.11.43.43,0,0,1,.14.34.42.42,0,0,1-.14.33A.45.45,0,0,1,71.46,32.53Zm.46.95v2.65a.64.64,0,0,1-.13.42.46.46,0,0,1-.34.14.42.42,0,0,1-.32-.14.6.6,0,0,1-.13-.42V33.5a.56.56,0,0,1,.13-.41.41.41,0,0,1,.32-.13.45.45,0,0,1,.34.13A.57.57,0,0,1,71.92,33.48Z"/><path class="cls-1" d="M72.92,33H73v-.56a3.23,3.23,0,0,1,0-.34.48.48,0,0,1,.07-.22.31.31,0,0,1,.15-.15.44.44,0,0,1,.23-.06.43.43,0,0,1,.31.13.45.45,0,0,1,.12.21,1.73,1.73,0,0,1,0,.36V33h.33a.45.45,0,0,1,.3.09.3.3,0,0,1,.1.24.25.25,0,0,1-.14.25,1,1,0,0,1-.42.08h-.17v1.69a3,3,0,0,0,0,.33.37.37,0,0,0,.08.19.29.29,0,0,0,.22.07l.21,0,.22,0a.28.28,0,0,1,.2.09.29.29,0,0,1,.09.22.37.37,0,0,1-.24.34,1.63,1.63,0,0,1-.7.12,1.26,1.26,0,0,1-.65-.14.64.64,0,0,1-.29-.41,2.48,2.48,0,0,1-.07-.68V33.7H72.9a.41.41,0,0,1-.31-.1.29.29,0,0,1-.1-.23.3.3,0,0,1,.11-.24A.49.49,0,0,1,72.92,33Z"/><path class="cls-1" d="M77.63,36.17a3,3,0,0,1-.65.39,1.7,1.7,0,0,1-.69.13,1.39,1.39,0,0,1-.63-.14,1.07,1.07,0,0,1-.41-.38,1,1,0,0,1-.14-.52.93.93,0,0,1,.24-.64,1.16,1.16,0,0,1,.65-.36l.44-.09c.23,0,.43-.09.59-.13l.54-.14a.9.9,0,0,0-.15-.53c-.09-.12-.26-.17-.54-.17a1,1,0,0,0-.52.1.85.85,0,0,0-.31.29l-.17.26a.32.32,0,0,1-.23.06.4.4,0,0,1-.26-.1.32.32,0,0,1-.12-.26.82.82,0,0,1,.17-.47A1.32,1.32,0,0,1,76,33.1a2.35,2.35,0,0,1,.9-.15,2.71,2.71,0,0,1,1,.14.94.94,0,0,1,.49.45,2.09,2.09,0,0,1,.14.82v.55c0,.15,0,.32,0,.5a1.7,1.7,0,0,0,.09.54,2.07,2.07,0,0,1,.08.37.31.31,0,0,1-.13.25.44.44,0,0,1-.3.12.4.4,0,0,1-.28-.13A2,2,0,0,1,77.63,36.17Zm-.06-1.33A5.61,5.61,0,0,1,77,35l-.53.12a.89.89,0,0,0-.29.15.39.39,0,0,0-.13.32.44.44,0,0,0,.16.35.56.56,0,0,0,.41.15,1.06,1.06,0,0,0,.5-.12.74.74,0,0,0,.34-.31,1.33,1.33,0,0,0,.13-.69ZM77,31.64h.45c.11,0,.17,0,.17.05a1.13,1.13,0,0,1-.19.22c-.12.12-.25.25-.38.36a1.25,1.25,0,0,1-.26.21.86.86,0,0,1-.41.1c-.1,0-.15,0-.15-.08a.45.45,0,0,1,.09-.2l.15-.28a.93.93,0,0,1,.23-.32A.56.56,0,0,1,77,31.64Z"/><path class="cls-1" d="M80.31,35.36v.77a.57.57,0,0,1-.13.42.46.46,0,0,1-.66,0,.64.64,0,0,1-.13-.42V33.57c0-.41.15-.61.45-.61a.37.37,0,0,1,.33.14.74.74,0,0,1,.11.43,1.79,1.79,0,0,1,.34-.43.68.68,0,0,1,.46-.14,1.17,1.17,0,0,1,.57.14.43.43,0,0,1,.27.38.35.35,0,0,1-.12.28.38.38,0,0,1-.25.11l-.24-.06a1.22,1.22,0,0,0-.34-.06.48.48,0,0,0-.33.1.61.61,0,0,0-.2.32,2.11,2.11,0,0,0-.1.49A7,7,0,0,0,80.31,35.36Z"/><path class="cls-1" d="M82.88,32.53a.47.47,0,0,1-.32-.12.39.39,0,0,1-.14-.33.42.42,0,0,1,.14-.32.44.44,0,0,1,.32-.13.52.52,0,0,1,.32.11.43.43,0,0,1,.14.34.42.42,0,0,1-.14.33A.45.45,0,0,1,82.88,32.53Zm.46.95v2.65a.64.64,0,0,1-.13.42.46.46,0,0,1-.34.14.42.42,0,0,1-.32-.14.6.6,0,0,1-.13-.42V33.5a.56.56,0,0,1,.13-.41.41.41,0,0,1,.32-.13.45.45,0,0,1,.34.13A.57.57,0,0,1,83.34,33.48Z"/><path class="cls-1" d="M87.73,34.82a2.28,2.28,0,0,1-.13.76,1.84,1.84,0,0,1-.37.6,1.77,1.77,0,0,1-.58.38,2.06,2.06,0,0,1-.76.13,2.18,2.18,0,0,1-.75-.13,1.74,1.74,0,0,1-.58-.39,1.79,1.79,0,0,1-.37-.59,2.29,2.29,0,0,1-.12-.76,2.06,2.06,0,0,1,.13-.76,1.58,1.58,0,0,1,.94-1,2.26,2.26,0,0,1,1.51,0,1.77,1.77,0,0,1,.58.38,1.84,1.84,0,0,1,.37.6A2.22,2.22,0,0,1,87.73,34.82Zm-.93,0a1.41,1.41,0,0,0-.24-.87.86.86,0,0,0-1.14-.18.91.91,0,0,0-.32.42,1.86,1.86,0,0,0,0,1.26.88.88,0,0,0,.31.41.81.81,0,0,0,.48.15.82.82,0,0,0,.67-.32A1.41,1.41,0,0,0,86.8,34.82Z"/><path class="cls-1" d="M45.48,39.86a2.63,2.63,0,0,1,1.32.31,2.07,2.07,0,0,1,.83.88,3,3,0,0,1,.28,1.35,3.39,3.39,0,0,1-.15,1,2.19,2.19,0,0,1-.47.81,2,2,0,0,1-.76.53,2.74,2.74,0,0,1-1,.18,2.68,2.68,0,0,1-1-.19,2.14,2.14,0,0,1-.76-.52,2.27,2.27,0,0,1-.46-.82,3.13,3.13,0,0,1-.16-1,3.21,3.21,0,0,1,.17-1,2.19,2.19,0,0,1,.47-.81,1.94,1.94,0,0,1,.75-.5A2.67,2.67,0,0,1,45.48,39.86ZM46.9,42.4a2.39,2.39,0,0,0-.17-.94,1.31,1.31,0,0,0-.5-.6,1.37,1.37,0,0,0-.75-.21,1.26,1.26,0,0,0-.55.12,1.16,1.16,0,0,0-.44.32,1.69,1.69,0,0,0-.29.55,2.68,2.68,0,0,0,0,1.52,1.58,1.58,0,0,0,.3.56,1.24,1.24,0,0,0,.44.33,1.26,1.26,0,0,0,.55.12,1.33,1.33,0,0,0,.71-.2,1.3,1.3,0,0,0,.51-.59A2.23,2.23,0,0,0,46.9,42.4Z"/><path class="cls-1" d="M49.54,41.73v.11a1.65,1.65,0,0,1,.53-.47,1.46,1.46,0,0,1,1.31,0,1.1,1.1,0,0,1,.43.45.89.89,0,0,1,.11.36,3.43,3.43,0,0,1,0,.5V44.4a.66.66,0,0,1-.12.42.45.45,0,0,1-.33.14.43.43,0,0,1-.34-.15A.61.61,0,0,1,51,44.4V42.87a1.65,1.65,0,0,0-.13-.7.51.51,0,0,0-.5-.24.72.72,0,0,0-.45.15.87.87,0,0,0-.3.4,3.29,3.29,0,0,0-.06.77V44.4a.62.62,0,0,1-.13.42.46.46,0,0,1-.34.14.39.39,0,0,1-.32-.15.56.56,0,0,1-.13-.41V41.75a.64.64,0,0,1,.11-.4.42.42,0,0,1,.31-.13.38.38,0,0,1,.22.06.44.44,0,0,1,.16.17A.61.61,0,0,1,49.54,41.73Z"/><path class="cls-1" d="M56.31,43.09a2.28,2.28,0,0,1-.13.76,1.69,1.69,0,0,1-.37.59,1.65,1.65,0,0,1-.58.39,2.28,2.28,0,0,1-.76.13,2,2,0,0,1-.75-.14,1.58,1.58,0,0,1-.58-.38,1.9,1.9,0,0,1-.37-.59,2.29,2.29,0,0,1-.12-.76,2.06,2.06,0,0,1,.13-.76,1.58,1.58,0,0,1,.94-1,2.11,2.11,0,0,1,1.51,0,1.67,1.67,0,0,1,.58.38,1.9,1.9,0,0,1,.37.59A2.33,2.33,0,0,1,56.31,43.09Zm-.93,0a1.41,1.41,0,0,0-.24-.87A.86.86,0,0,0,54,42a.86.86,0,0,0-.32.42,1.86,1.86,0,0,0,0,1.26.88.88,0,0,0,.31.41.81.81,0,0,0,.48.15.82.82,0,0,0,.67-.32A1.41,1.41,0,0,0,55.38,43.09Z"/><path class="cls-1" d="M57,41.31h.22V41a1.84,1.84,0,0,1,.11-.69.78.78,0,0,1,.37-.37,2,2,0,0,1,.72-.11c.53,0,.8.13.8.39a.33.33,0,0,1-.08.22.27.27,0,0,1-.2.09l-.19,0-.22,0a.33.33,0,0,0-.32.15,1.1,1.1,0,0,0-.07.42v.22h.23c.35,0,.52.1.52.31s0,.25-.14.29a1,1,0,0,1-.38.06h-.23V44.4a.6.6,0,0,1-.13.42.44.44,0,0,1-.33.14.45.45,0,0,1-.33-.14.66.66,0,0,1-.13-.42V42h-.25a.51.51,0,0,1-.32-.09.34.34,0,0,1-.11-.25C56.49,41.42,56.65,41.31,57,41.31Z"/><path class="cls-1" d="M60.24,43.63v.77a.57.57,0,0,1-.14.42.42.42,0,0,1-.33.14.45.45,0,0,1-.33-.14.66.66,0,0,1-.12-.42V41.84c0-.41.15-.62.44-.62a.35.35,0,0,1,.33.15.81.81,0,0,1,.12.43,1.56,1.56,0,0,1,.33-.43.7.7,0,0,1,.47-.15,1.15,1.15,0,0,1,.56.15.43.43,0,0,1,.27.38.36.36,0,0,1-.12.28.36.36,0,0,1-.25.11l-.24-.06a1.16,1.16,0,0,0-.34-.06.48.48,0,0,0-.33.1.68.68,0,0,0-.2.32,2,2,0,0,0-.1.49C60.24,43.12,60.24,43.36,60.24,43.63Z"/><path class="cls-1" d="M64.73,43.32H62.94a1.2,1.2,0,0,0,.12.55.85.85,0,0,0,.78.48,1,1,0,0,0,.3,0,.68.68,0,0,0,.26-.12,1.08,1.08,0,0,0,.24-.18l.28-.25a.3.3,0,0,1,.2-.06.33.33,0,0,1,.23.07.29.29,0,0,1,.09.22.63.63,0,0,1-.1.29,1.08,1.08,0,0,1-.29.32,1.68,1.68,0,0,1-.5.26,2.07,2.07,0,0,1-.68.1,1.83,1.83,0,0,1-1.38-.51A1.85,1.85,0,0,1,62,43.08a2.27,2.27,0,0,1,.12-.75,1.79,1.79,0,0,1,.35-.6,1.73,1.73,0,0,1,.57-.38,2.06,2.06,0,0,1,.76-.13,1.77,1.77,0,0,1,.92.22,1.56,1.56,0,0,1,.58.59,1.54,1.54,0,0,1,.19.74c0,.23-.07.38-.2.44A1.21,1.21,0,0,1,64.73,43.32Zm-1.79-.52H64.6a1.1,1.1,0,0,0-.25-.71.75.75,0,0,0-.58-.23.78.78,0,0,0-.57.23A1.25,1.25,0,0,0,62.94,42.8Z"/><path class="cls-1" d="M69,40.46v3.59h2a.53.53,0,0,1,.37.12.42.42,0,0,1,.13.3.35.35,0,0,1-.13.29.53.53,0,0,1-.37.12H68.64a.65.65,0,0,1-.47-.15.68.68,0,0,1-.14-.47v-3.8a.65.65,0,0,1,.14-.45.51.51,0,0,1,.72,0A.65.65,0,0,1,69,40.46Z"/><path class="cls-1" d="M75.59,43.09a2.06,2.06,0,0,1-.13.76,1.68,1.68,0,0,1-.95,1,2.2,2.2,0,0,1-.76.13,2,2,0,0,1-.75-.14,1.47,1.47,0,0,1-.57-.38,1.59,1.59,0,0,1-.37-.59,2.29,2.29,0,0,1,0-1.52,1.56,1.56,0,0,1,.37-.59,1.5,1.5,0,0,1,.57-.38,2,2,0,0,1,.75-.14,2,2,0,0,1,.76.14,1.67,1.67,0,0,1,.58.38,1.59,1.59,0,0,1,.37.59A2.09,2.09,0,0,1,75.59,43.09Zm-.92,0a1.41,1.41,0,0,0-.25-.87.82.82,0,0,0-.67-.32.86.86,0,0,0-.47.14.93.93,0,0,0-.32.42,1.86,1.86,0,0,0,0,1.26.9.9,0,0,0,.32.41.75.75,0,0,0,.47.15.82.82,0,0,0,.67-.32A1.41,1.41,0,0,0,74.67,43.09Z"/><path class="cls-1" d="M77.16,41.74v.11a1.79,1.79,0,0,1,.54-.47,1.3,1.3,0,0,1,.63-.15,1.44,1.44,0,0,1,.78.22,1.46,1.46,0,0,1,.56.64,2.19,2.19,0,0,1,.21,1,2.37,2.37,0,0,1-.12.78,1.73,1.73,0,0,1-.33.6,1.43,1.43,0,0,1-1.1.5,1.24,1.24,0,0,1-.66-.16,1.8,1.8,0,0,1-.51-.46v1.38c0,.4-.15.6-.44.6a.35.35,0,0,1-.34-.15,1,1,0,0,1-.09-.46v-4a.58.58,0,0,1,.12-.4.41.41,0,0,1,.31-.13.42.42,0,0,1,.32.14A.54.54,0,0,1,77.16,41.74ZM79,43.07a1.64,1.64,0,0,0-.11-.62,1,1,0,0,0-.31-.4.76.76,0,0,0-.43-.14.83.83,0,0,0-.65.3,1.32,1.32,0,0,0-.26.88,1.27,1.27,0,0,0,.26.85.81.81,0,0,0,.65.31.8.8,0,0,0,.42-.13,1,1,0,0,0,.31-.4A1.57,1.57,0,0,0,79,43.07Z"/><path class="cls-1" d="M83.18,43.32H81.39a1.2,1.2,0,0,0,.12.55.83.83,0,0,0,.33.36.84.84,0,0,0,.45.12,1,1,0,0,0,.3,0,.68.68,0,0,0,.26-.12,1.08,1.08,0,0,0,.24-.18l.28-.25a.28.28,0,0,1,.2-.06.35.35,0,0,1,.23.07.29.29,0,0,1,.09.22.63.63,0,0,1-.1.29,1,1,0,0,1-.3.32,1.51,1.51,0,0,1-.49.26,2.09,2.09,0,0,1-.69.1,1.81,1.81,0,0,1-1.37-.51,1.85,1.85,0,0,1-.49-1.37,2.27,2.27,0,0,1,.12-.75,1.79,1.79,0,0,1,.35-.6,1.73,1.73,0,0,1,.57-.38,2.06,2.06,0,0,1,.76-.13,1.79,1.79,0,0,1,.92.22,1.56,1.56,0,0,1,.58.59,1.54,1.54,0,0,1,.19.74c0,.23-.07.38-.2.44A1.21,1.21,0,0,1,83.18,43.32Zm-1.79-.52h1.66a1.15,1.15,0,0,0-.25-.71.75.75,0,0,0-.58-.23.78.78,0,0,0-.57.23A1.25,1.25,0,0,0,81.39,42.8Z"/><path class="cls-1" d="M87.67,43.76a1,1,0,0,1-.73,1.06,2.5,2.5,0,0,1-.88.14,2.19,2.19,0,0,1-.85-.15,1.26,1.26,0,0,1-.52-.38.77.77,0,0,1-.17-.46.38.38,0,0,1,.11-.26.36.36,0,0,1,.27-.1.29.29,0,0,1,.22.07.46.46,0,0,1,.15.2,1.08,1.08,0,0,0,.34.36,1,1,0,0,0,.54.12.79.79,0,0,0,.45-.12.34.34,0,0,0,.18-.28.37.37,0,0,0-.19-.35,2.06,2.06,0,0,0-.6-.22,4.75,4.75,0,0,1-.77-.24,1.34,1.34,0,0,1-.48-.34.81.81,0,0,1-.18-.53,1,1,0,0,1,.17-.52,1.18,1.18,0,0,1,.48-.39,1.87,1.87,0,0,1,.78-.15,2.49,2.49,0,0,1,.64.08,1.36,1.36,0,0,1,.47.2.85.85,0,0,1,.29.27.51.51,0,0,1,.1.3.35.35,0,0,1-.1.26.4.4,0,0,1-.3.1.36.36,0,0,1-.24-.08,1.79,1.79,0,0,1-.23-.24.75.75,0,0,0-.25-.22.8.8,0,0,0-.38-.08.73.73,0,0,0-.41.11.3.3,0,0,0-.17.26.29.29,0,0,0,.12.24,1,1,0,0,0,.33.15l.56.15a2.81,2.81,0,0,1,.7.25,1.08,1.08,0,0,1,.41.34A.77.77,0,0,1,87.67,43.76Z"/></g></g></svg>