<svg xmlns="http://www.w3.org/2000/svg" viewBox="0 0 120.65 38.45"><defs><style>.cls-1{fill:#f2f2f2;}</style></defs><title>LAIS_logo</title><g id="Layer_2" data-name="Layer 2"><g id="Layer_2-2" data-name="Layer 2"><path class="cls-1" d="M21.92,36.3a17.11,17.11,0,0,1-17-15.41H0v1.6H3.16a18.63,18.63,0,0,0,18.76,16,19.22,19.22,0,0,0,18.82-16H44v-1.6H39A16.94,16.94,0,0,1,21.92,36.3Z"/><path class="cls-1" d="M21.92,3.62A15.66,15.66,0,0,0,6.15,19.24c0,.07,0,.05,0,.05H17a1,1,0,0,1,.79.64l.43,1.13,1-6.08a.83.83,0,0,1,.8-.7.84.84,0,0,1,.86.63l2.49,9.44,2.54-14.06a.85.85,0,0,1,1.66-.07l3.26,12.09,1.35-2.62a.8.8,0,0,1,.76-.4h4.76A15.73,15.73,0,0,0,21.92,3.62Z"/><path class="cls-1" d="M30.48,25.52a.87.87,0,0,1-.74-.62L26.89,14.31l-2.55,14a.73.73,0,0,1-.8.57h0a.75.75,0,0,1-.83-.51l-2.44-9.21-.85,5.21a.86.86,0,0,1-.74.73,1,1,0,0,1-.89-.68l-1.35-3.53H6.27a15.76,15.76,0,0,0,31.34,0H33.44l-2.12,4.18A.83.83,0,0,1,30.48,25.52Z"/><path class="cls-1" d="M40.89,17.69A19.35,19.35,0,0,0,21.92,0a19.17,19.17,0,0,0-19,17.69H0v1.6H4.8a.2.2,0,0,1,0-.08A17.13,17.13,0,0,1,39,19.29H44v-1.6Z"/><path class="cls-1" d="M57.74,6.72V26.66a2.13,2.13,0,0,0,2.43,2.39h9l.14,2.46q-3.15.25-9.68.25c-3.38,0-5.07-1.56-5.07-4.71V6.72Z"/><path class="cls-1" d="M86.55,23.9H76.26L73.8,31.73H70.5l8-24.14a1.1,1.1,0,0,1,1.2-.87h3.33a1.09,1.09,0,0,1,1.2.87l8,24.14H89Zm-.87-2.75-3.15-9.93c-.22-.63-.42-1.31-.62-2h-1l-.62,2-3.15,9.93Z"/><path class="cls-1" d="M99,31.73H95.83v-25H99Z"/><path class="cls-1" d="M114.28,21.15l-5.19-1.31a6,6,0,0,1-3.78-2.34,8.14,8.14,0,0,1-1.14-4.62,11.07,11.07,0,0,1,.45-3.49,3.62,3.62,0,0,1,1.56-2,6.76,6.76,0,0,1,2.46-.88,23.44,23.44,0,0,1,3.64-.22,39.29,39.29,0,0,1,7.43.72l-.22,2.32q-3.51-.18-7.06-.18c-1.07,0-1.85,0-2.36.07a4.2,4.2,0,0,0-1.48.44,1.76,1.76,0,0,0-1,1.14,7.65,7.65,0,0,0-.24,2.16,4.37,4.37,0,0,0,.71,2.82,4.55,4.55,0,0,0,2.44,1.27l5.08,1.27a6.31,6.31,0,0,1,3.91,2.36,8.29,8.29,0,0,1,1.12,4.67c0,2.75-.62,4.58-1.86,5.47s-3.41,1.34-6.51,1.34a44.23,44.23,0,0,1-7.75-.68l.22-2.36c4,.14,6.6.21,7.64.18,2,0,3.32-.25,4-.76s1-1.59,1-3.26a4.45,4.45,0,0,0-.71-2.88A4.61,4.61,0,0,0,114.28,21.15Z"/></g></g></svg>