<svg xmlns="http://www.w3.org/2000/svg" viewBox="0 0 23.4 28.27"><defs><style>.cls-1{fill:#4d4d4d;}</style></defs><title>Lattes_logo</title><g id="Camada_2" data-name="Camada 2"><g id="guides"><path class="cls-1" d="M23.36,13.46c0-.19-.08-.38-.11-.57s-.08-.56-.15-.82a9.25,9.25,0,0,0-.71-1.9,10.73,10.73,0,0,0-1.31-2c-.43-.52-.89-1-1.35-1.53a1.43,1.43,0,0,0-.58-.48c-.14,0-.26,0-.24.16A4.58,4.58,0,0,0,19,7c.19.57.41,1.14.6,1.72a5.53,5.53,0,0,1,.24,1.91A4.17,4.17,0,0,1,19.2,13a6.7,6.7,0,0,1-2.28,2.18,11.78,11.78,0,0,1-3.07,1.27,14.5,14.5,0,0,1-2.45.46,19.14,19.14,0,0,1-2.28.1c-.95-.05-1.9,0-2.85-.18-.42-.07-.84-.11-1.26-.19-.64-.12-1.28-.27-1.92-.41L2.16,16,.81,15.59c-.15,0-.19,0-.14.15l.38,1c.13.36.26.71.4,1.07s.27.7.4,1.06.27.71.41,1.07L2.66,21l.41,1.08c.13.36.27.73.41,1.09s.25.69.39,1,.27.7.41,1.06.32.86.49,1.29.39,1,.58,1.52c.08.2.1.21.31.16L6.77,28l1.15-.22.89-.21.87-.21,1-.31c.33-.1.66-.19,1-.3s.73-.26,1.09-.41c.61-.25,1.24-.48,1.83-.77s1.32-.68,1.95-1.06a21.26,21.26,0,0,0,1.77-1.21,13.71,13.71,0,0,0,2.38-2.25A11.53,11.53,0,0,0,22,19.19a14.06,14.06,0,0,0,1.08-2.52,7.71,7.71,0,0,0,.29-1.33,11.29,11.29,0,0,0,0-1.3A3.77,3.77,0,0,0,23.36,13.46Z"/><path class="cls-1" d="M18.28,2.82A.91.91,0,0,0,18,2.51c-.22-.12-.45-.21-.68-.31-.61-.27-1.21-.56-1.83-.8S14.26,1,13.64.78a15.52,15.52,0,0,0-2.7-.61A14.56,14.56,0,0,0,8.22,0a4.3,4.3,0,0,0-.51,0c-.53.09-1.06.2-1.58.31a7,7,0,0,0-1.93.72,7.09,7.09,0,0,0-2,1.61A8.93,8.93,0,0,0,1,4.42,7.72,7.72,0,0,0,.44,6,13.41,13.41,0,0,0,.08,7.82a17.61,17.61,0,0,0,0,3.08c2.46,2.34,5.51,2.65,9.14,2.7-.09-.25-.18-.49-.25-.74-.16-.53-.33-1.06-.45-1.6S8.23,10,8.13,9.39,8,8.35,8,7.83c0,0,0-.62.06-.93a7.39,7.39,0,0,1,.16-1.05,3.83,3.83,0,0,1,.46-1.08,3.18,3.18,0,0,1,.81-.94,5.2,5.2,0,0,1,1.61-.77A8.09,8.09,0,0,1,13,2.75a15.88,15.88,0,0,1,2.67.13c.62.09,1.24.17,1.87.23a2,2,0,0,0,.64-.1C18.27,3,18.34,2.91,18.28,2.82Z"/><path class="cls-1" d="M17.05,8.24a4.32,4.32,0,0,0-1.36-1.46,4.84,4.84,0,0,0-2.08-.87A2.93,2.93,0,0,0,12,6.06a2.15,2.15,0,0,0-1.24,1.16,2.67,2.67,0,0,0-.21.83,3.48,3.48,0,0,0,.28,1.36A3.92,3.92,0,0,0,12,10.9a5.16,5.16,0,0,0,.82.56,3.49,3.49,0,0,0,.74.33,6.28,6.28,0,0,0,.86.19,2.63,2.63,0,0,0,1,0,2.8,2.8,0,0,0,1.17-.48,2.22,2.22,0,0,0,.59-.63,2,2,0,0,0,.26-.74c0-.15.05-.31.08-.47A3,3,0,0,0,17.05,8.24Z"/></g></g></svg>