<svg xmlns="http://www.w3.org/2000/svg" xmlns:xlink="http://www.w3.org/1999/xlink" viewBox="0 0 2244.49 3285.22"><defs><style>.cls-1{fill:none;}.cls-2{clip-path:url(#clip-path);}.cls-3{fill:#ddd;}</style><clipPath id="clip-path" transform="translate(0 -37.18)"><rect class="cls-1" x="244.65" width="1920" height="918.42"/></clipPath></defs><title>Nuvem_inicio_bg</title><g id="Layer_2" data-name="Layer 2"><g id="Layer_2-2" data-name="Layer 2"><g id="Nuvem_inicio_bg"><g class="cls-2"><path class="cls-3" d="M2244.49,729a147.27,147.27,0,0,0-46.44-107.86,74.14,74.14,0,0,0,10.41-40.52c-1.23-38.44-31.92-69.6-69.4-70.49-40-.95-72.81,32.07-72.81,72.94,0,1.58.07,3.13.16,4.68a141.73,141.73,0,0,0-71.52,45.52,25,25,0,0,1-23.94,8.54,56.55,56.55,0,0,0-11-1.07c-31.64,0-57.3,26.32-57.3,58.78v.12a106.77,106.77,0,0,0-23.58,3.74c-89,24.54-182.44,28.44-273.73,14.67L734.65,586.7c-68.26-10.3-118.24-69.33-117.71-138.36,0-.43,0-.86,0-1.29.21-116.7-91.94-211.37-205.65-211.37H411a21.12,21.12,0,0,1-20.92-23.1c.15-1.66.23-3.34.23-5a55.44,55.44,0,0,0-29.38-49.24c-8.75-4.59-12.9-14.87-10.45-24.64a36.76,36.76,0,0,0,1-10.45C350.73,104.85,336,90,318.09,89.42a33.94,33.94,0,0,0-25.06,10,20.32,20.32,0,0,1-23.8,3.92,84.86,84.86,0,0,0-41-9.55c-47.11,1-85.2,40.9-85.22,89.24a91.13,91.13,0,0,0,5.81,32.13C62.91,240.43.05,321.58,0,417.8-.07,533.26,91.33,627.92,203.87,628.9A201.79,201.79,0,0,0,237,626.46v2696h1927.7V860C2211.81,836.18,2244.49,786.32,2244.49,729Z" transform="translate(0 -37.18)"/><ellipse class="cls-3" cx="2017.3" cy="401.79" rx="40.52" ry="41.57"/><path class="cls-3" d="M2086.65,330.38a13.7,13.7,0,1,0-13.35-13.7A13.53,13.53,0,0,0,2086.65,330.38Z" transform="translate(0 -37.18)"/><path class="cls-3" d="M414.23,87.15a13.7,13.7,0,1,0-13.35-13.7A13.53,13.53,0,0,0,414.23,87.15Z" transform="translate(0 -37.18)"/><ellipse class="cls-3" cx="272.23" cy="13.7" rx="13.35" ry="13.7"/></g></g></g></g></svg>