<svg xmlns="http://www.w3.org/2000/svg" xmlns:xlink="http://www.w3.org/1999/xlink" viewBox="0 0 2990.6 5039.44"><defs><style>.cls-1{fill:none;}.cls-2{clip-path:url(#clip-path);}.cls-3{fill:#e6e6e6;}</style><clipPath id="clip-path" transform="translate(0 -45.23)"><rect class="cls-1" x="316.96" width="1920" height="1064.28"/></clipPath></defs><title>Nuvem_dp_bg</title><g id="Layer_2" data-name="Layer 2"><g id="Layer_2-2" data-name="Layer 2"><g id="Nuvem_dp_bg"><g class="cls-2"><path class="cls-3" d="M2990.6,967a196.23,196.23,0,0,0-61.87-143.71,98.85,98.85,0,0,0,13.86-54c-1.64-51.23-42.53-92.74-92.47-93.93-53.36-1.26-97,42.74-97,97.2,0,2.09.09,4.16.22,6.22a188.9,188.9,0,0,0-95.3,60.66,33.38,33.38,0,0,1-31.9,11.38,74.65,74.65,0,0,0-14.59-1.43c-42.16,0-76.34,35.07-76.34,78.33v.16c-48.1,2.19-90.15,28.24-115.18,66.89l-116.9-17.63a853.87,853.87,0,0,0-749.77-182c-82.28,19.36-168.89-2.43-231.4-59.33A539,539,0,0,0,843.12,608.48,17.3,17.3,0,0,1,822,591.57v-.22c.28-155.5-122.51-281.65-274-281.65h-.4a28.12,28.12,0,0,1-27.86-30.77q.29-3.31.29-6.72a73.88,73.88,0,0,0-39.14-65.61c-11.66-6.12-17.19-19.81-13.93-32.83a48.45,48.45,0,0,0,1.4-13.92c-1.06-24.47-20.69-44.29-44.55-45a45.21,45.21,0,0,0-33.39,13.28c-8.51,8.46-21.14,10.7-31.71,5.22a113.07,113.07,0,0,0-54.67-12.72c-62.77,1.31-113.53,54.49-113.54,118.9a121,121,0,0,0,7.73,42.81C83.82,316,.07,424.16,0,552.37c-.09,153.84,121.69,280,271.64,281.27a269.46,269.46,0,0,0,44.08-3.25V5084.67h2568.5V1141.57C2947.06,1109.83,2990.6,1043.39,2990.6,967Z" transform="translate(0 -45.23)"/><ellipse class="cls-3" cx="2687.89" cy="535.35" rx="53.99" ry="55.38"/><ellipse class="cls-3" cx="2780.29" cy="372.41" rx="17.79" ry="18.25"/><ellipse class="cls-3" cx="362.73" cy="18.25" rx="17.79" ry="18.25"/></g></g></g></g></svg>