<svg xmlns="http://www.w3.org/2000/svg" xmlns:xlink="http://www.w3.org/1999/xlink" viewBox="0 0 783.71 1140.32"><defs><style>.cls-1{fill:url(#linear-gradient);}.cls-2{fill:none;}.cls-3{isolation:isolate;}.cls-4{mask:url(#mask);}.cls-5{opacity:0.28;}.cls-6{fill:#1a1a1a;}.cls-7{fill:#333;}.cls-8{clip-path:url(#clip-path);}.cls-9{fill:#777;}.cls-10{fill:url(#linear-gradient-2);}.cls-11{fill:url(#linear-gradient-3);}.cls-12{fill:url(#linear-gradient-4);}.cls-13{fill:url(#linear-gradient-5);}.cls-14{fill:url(#linear-gradient-6);}.cls-15{fill:url(#linear-gradient-7);}.cls-16{fill:url(#linear-gradient-8);}.cls-17{fill:url(#linear-gradient-9);}.cls-18{fill:url(#linear-gradient-10);}.cls-19{fill:url(#linear-gradient-11);}.cls-20{fill:url(#linear-gradient-12);}.cls-21{mix-blend-mode:multiply;fill:url(#linear-gradient-13);}</style><linearGradient id="linear-gradient" x1="3095.58" y1="3141.15" x2="3993.55" y2="3141.15" gradientTransform="matrix(3.18, -0.76, 3.25, 0.74, -21064.93, 847.18)" gradientUnits="userSpaceOnUse"><stop offset="0.04"/><stop offset="0.04" stop-color="#090909"/><stop offset="0.08" stop-color="#373737"/><stop offset="0.13" stop-color="#626262"/><stop offset="0.17" stop-color="#888"/><stop offset="0.23" stop-color="#a8a8a8"/><stop offset="0.28" stop-color="#c4c4c4"/><stop offset="0.35" stop-color="#dadada"/><stop offset="0.42" stop-color="#ebebeb"/><stop offset="0.51" stop-color="#f6f6f6"/><stop offset="0.64" stop-color="#fdfdfd"/><stop offset="1" stop-color="#fff"/></linearGradient><mask id="mask" x="-170.31" y="-142.57" width="1141.18" height="1282.89" maskUnits="userSpaceOnUse"><rect class="cls-1" x="118.93" y="-121.07" width="562.72" height="1229.41" rx="59.9" ry="59.9" transform="translate(377.68 -141.5) rotate(37)"/></mask><clipPath id="clip-path"><path class="cls-2" d="M658.46,160.15c-1.34,1.32-3.06,3.63-4.54,4.56-10.17,6.36-19.53,8.69-31.34,8.92,1.4-11.75,4.62-20.89,11.91-30.42,1.07-1.39,3.54-2.89,5-4.1-3.43-1.48-7-2.66-10.46-4.27-8.8,5.9-16.85,9.36-24.5,17.46-8.81,9.31-13.84,22.37-18.17,34.7a90.36,90.36,0,0,1-23.52,36.1,4.16,4.16,0,0,1-.61.5,24.75,24.75,0,0,1-12.48,4c-.26,0-.67-.1-.92-.06-5,.71-7.68,2.72-9.94,7.18a1.46,1.46,0,0,1-1.57,1c-1.44-.07-2.68-.55-4.14-.06a10.73,10.73,0,0,0-6.92,6.37c-.61,1.44-.3,2.8-.32,4.29a1.49,1.49,0,0,1-.94,1.48l-.08,0a1.62,1.62,0,0,1-1.11-.33c-3-1.7-5.44-3.58-9.1-2.91-5.25.95-8.61,4.12-10.4,9.12-1,2.92,0,5.51.64,8.36a1.5,1.5,0,0,1-.33,1.53,1.17,1.17,0,0,1-.37.29c-4.53-2.13-8.27-4.85-13.58-4.39-9.17.78-15.87,5.32-21.24,12.59-2.78,3.75-2.81,7.65-3.82,11.89a2.62,2.62,0,0,1-2.87,2.41c-4.13.26-7.75-.58-11.74,1.36-8.59,4.16-14.4,10.4-17.26,19.6-1.56,5.05-.15,9.25.66,14.21a2.89,2.89,0,0,1-1.28,3.23,33.83,33.83,0,0,0-10.92,12.52,3.2,3.2,0,0,1-3.17,1.89c-2.5,0-4.65-.69-7.2.09-8,2.47-13.57,6.72-17.68,14.13-1.5,2.7-1.28,5.18-1.82,8.2-1.52,8.55-5,15-10.82,21.66-1,1.19-3.37,3.64-4.48,4.64-8.46,7.65-16.69,11.78-27.76,12.95-3.41.36-6.37-.06-9.43.66a57.46,57.46,0,0,0-19.28,8.9,22.29,22.29,0,0,1-15.55,4c-10-.85-19.44-2.53-29,.92-22,8-35.45,26.48-35.34,49.81,0,8.65,4.45,15,7.74,22.33,3,6.55,3,11.16-1.13,16.83s-7.11,10.38-9.39,17c-2.07,6.07-6,9-12.24,10.44A26,26,0,0,0,223,532c-12.12,4.07-18.2,10.23-21.74,22.51-5.23.15-9.57-1.15-14.81.7-18.41,6.49-25.42,17.28-25,36.58.18,7.08,4,11.56,6.81,17.25,2.55,5.14,2.93,8.77-.18,13.42a44.57,44.57,0,0,0-6.67,13.72c-1.35,4.78-4.42,7.17-9.24,8.35-.66.16-1.39,0-2.08.27-7.82,2.66-12.36,6.8-16.15,14.13-.06,0-.15,0-.21,0-11.25,5.88-16.32,13.1-17.19,25.82-.31,4.49,2.18,7.75,3.6,11.84a9.37,9.37,0,0,1-1.31,9.39,40.61,40.61,0,0,0-5.71,10.36c-1.37,3.54-3.64,5.44-7.17,6.85-1.08.43-2.23.43-3.29,1.13-6.12,4-9.09,8.55-10.19,15.88-.07.45.11.5.12,1C93.33,768,86,790.1,79.43,816.85c-3,12.31-3.21,32.33-.24,45.9,1,4.62-.22,8.67-1.37,12.9,0,0-.06,0-.1.29a13.16,13.16,0,0,0-.43,1.79,7.91,7.91,0,0,0,.84,3.31,2.65,2.65,0,0,1,0,2.72c-.54,1-1.21,1.67-1.25,3A8.07,8.07,0,0,0,79,892.5a9.66,9.66,0,0,0,2.72,1.75,3.2,3.2,0,0,1,1.84,2.4A12.44,12.44,0,0,0,85,901.28a1.64,1.64,0,0,1,.31,1c0,.41-.22.91-.23,1.35-.7,2.69-.15,4.46,1.68,6.53a5.53,5.53,0,0,1-1,2.29A7.23,7.23,0,0,0,84,914.9a10.46,10.46,0,0,0,3,10.75,9.13,9.13,0,0,0,2.75,1.46c1.59.81,2.51,1.75,2.51,3.49a21.58,21.58,0,0,0-.09,3.3,5.57,5.57,0,0,0,.73,5.62s.07,0,0,.08-.22.29-.24.44-.11-.21,0,.29.91,1.58,1.64,1.62a61.85,61.85,0,0,1,.63,6.34.11.11,0,0,1,0,.1c-1.11,2-1.34,3.51,0,5.45a6.62,6.62,0,0,1-1.45,2c-1.13,1.16-2.47,2.31-3,3.87-1,2.82-.66,4.92,1.48,7a8.92,8.92,0,0,0,3,1.33c1.42.59,2.27,1.34,2.33,2.8a10.41,10.41,0,0,0,1.21,4.89,3,3,0,0,1,.08,2.66s0,.07,0,.1c-1.11,4.32.2,6.28,4.39,7.63a6.76,6.76,0,0,0,1.56.05,7.81,7.81,0,0,1-.87,2.64c-.51,1-1.47,1.91-1.52,3.23-.2,4.94,2.74,7.14,7.2,8.63.38-.36.75-.75,1.12-1.12a4.74,4.74,0,0,1-.17.85,2,2,0,0,0-.14.66c.3,3.65,1.81,5.47,5.15,6.87-.32,1.55-1.31,2.72-1,4.43.89,4.78,3.71,7,8.51,7.85,2.21.39,4.37-.61,6.49-1.08a4.72,4.72,0,0,1,4.45.73,13.86,13.86,0,0,0,4.3,2.38,2.79,2.79,0,0,1,1.95,2.88c0,.2-.07.4,0,.6a7.58,7.58,0,0,0,3.07,5.4s0,0,0,.07c.75,3.44,2.42,5.32,5.86,6.17,1.23.3,2.35-.38,3.45-.69a1.92,1.92,0,0,1,2.39.71,8.19,8.19,0,0,0,2.08,2,2.61,2.61,0,0,1,1.07,2.53,7.09,7.09,0,0,0,0,1.66,3.79,3.79,0,0,0,2.21,2.87c1.25.46,2.18,0,3.36-.36.9-1.09,1.82-2.16,2.75-3.22a6.49,6.49,0,0,0,.31-1.1,8.86,8.86,0,0,0,0-1.93,4.61,4.61,0,0,0-1.35-2.4,2.36,2.36,0,0,1-.45-2.44,8.52,8.52,0,0,0,.53-3.26,4.5,4.5,0,0,0-5.43-4.12,2.39,2.39,0,0,1-2.41-1.28,10,10,0,0,0-2.28-3.15,1.28,1.28,0,0,1-.53-.69,12.08,12.08,0,0,0-.22-1.27c-.31-2.38-1.33-3.44-3.61-4.12a5.17,5.17,0,0,1,.08-2.28c.25-1.35.85-2.54.43-4-.84-2.89-2.91-4.44-5.82-5.08a10.51,10.51,0,0,0-3.74.32c-1.62.24-3,0-3.82-1.21a11.55,11.55,0,0,0-3.67-3.78,2.25,2.25,0,0,1-1.1-2.19s0-.06,0-.09c-.48-4.2-3.05-5.22-7-5.58a8.07,8.07,0,0,0-1.58.24,3.36,3.36,0,0,1,.56-2.34c.47-.88,1.39-1.66,1.4-2.82,0-4.34-2.32-6.18-6.26-7.47-.44.29-.85.6-1.27.9a3.36,3.36,0,0,1,.3-.7,3.42,3.42,0,0,0,.3-.56c.87-3,.49-4.71-2-6.66.8-1.06,2.2-2.07,2.52-3.38.91-3.7-.27-6.55-3.41-8.74-1.45-1-3.65-.75-5.35-.9-1.38-.13-2.49-.51-2.82-1.85a7.61,7.61,0,0,0-1.45-3.19c-.82-1.12-.31-2.28.56-3.28.12-.13.35-.27.47-.42a6,6,0,0,0,1.42-5.32s0,0,0,0a6.29,6.29,0,0,0,1.37-5c1.05-.82,2-1.61,2.27-3,.9-1.07,2.16-1.68,2.72-3,2-5.05,1.16-8.81-2.86-12.54-1.73-1.6-4-1.69-6.18-2.33-1.79-.54-2.94-1.31-3.52-3.08A16.27,16.27,0,0,0,100.9,913a4.45,4.45,0,0,1-.7-4.36c.06-.22.24-.35.29-.57a8.85,8.85,0,0,0-.85-6.91s0,0,0-.06c.55-4.11-.74-6.74-3.92-9.33-1.08-.88-2.48-1-3.74-1.42a3.81,3.81,0,0,1-2.58-2.08,4.6,4.6,0,0,1-.23-.74,62.59,62.59,0,0,1-1.84-7c0-.13.05-.16,0-.28a8.46,8.46,0,0,0-.52-2.56,23.7,23.7,0,0,1-1-2.36c-12.21-48,4.89-83.88,30.59-123.34a29,29,0,0,0,6.62-7.94c1.89-3.07,4.25-4.3,7.8-4.73,2.83-.34,5.55.08,8.22-1.28,7.83-4,11.93-9.5,13.52-18.11.48-2.58-.63-4.68-1-7.06A8.83,8.83,0,0,1,154.8,704,37.45,37.45,0,0,0,164,693a11.84,11.84,0,0,1,1.8-2.51,32.53,32.53,0,0,0,4.11-1.79c7.78-2.89,11.31-7,12.91-15.13a18.35,18.35,0,0,1,7.73-1.4c3.4-.08,6.11,1,9.75-.4,15.67-6,20.08-12.74,20.31-29.43,0-2.89-1.37-4.68-2-7-1.34-5.32-.47-9.21,3.65-12.56,5.69-4.62,9.77-8.77,13.39-15.08,2.05-3.57,5-5.19,8.91-6.2l.13,0c16.95-5.55,21.15-11,20.06-28.89-.12-2-1.31-3-1.82-4.83a23,23,0,0,1,10.63-2c4.06.07,7.51,1.2,11.87-.07,19.82-5.75,27.52-17,27.87-37.45.06-3.42-1.49-5.78-2-8.84-1.23-7.2.17-12.15,5.73-16.91,7.55-6.48,13.38-12.89,18.35-21.59,2.82-4.94,6.78-7.79,12.15-9.7l.2,0c21.41-7.56,29.68-19.67,29.06-42.24-.12-4.11-2.11-6.85-2.93-10.7-1.11-5.13-3.45-8.93-1.17-14.39,6.29-15.05,18.2-25,34.66-27,1.22-.15,2.07.19,3.14-.1,10.12-2.76,16-7.51,20.73-16.85a3.32,3.32,0,0,1,3.23-2.1c2.39-.08,4.46.7,6.83-.09,8.11-2.69,13.23-7.27,16.68-15.07,1.07-2.42.44-4.61.61-7.11a3.21,3.21,0,0,1,2.05-2.94.75.75,0,0,1,.16,0,3.28,3.28,0,0,1,2.27.6c5.85,3.07,10.86,6.34,17.83,5.11,10.94-1.94,17.47-8.26,21.85-18.26,1.52-3.47.48-6.77.6-10.32.28-.67.5-1.33.8-2a1.44,1.44,0,0,1,1.57-.93c1.48.08,2.76.53,4.26,0a11.43,11.43,0,0,0,7.24-6.48c.66-1.46.38-2.82.45-4.32a1.55,1.55,0,0,1,1-1.5l.08,0a1.58,1.58,0,0,1,1.1.33c3,1.77,5.6,3.59,9.34,2.88,5-1,8.35-4,10.15-8.8,1.15-3.07.16-5.77-.56-8.77a1.51,1.51,0,0,1,.37-1.53c2.42-2.73,4.57-5.26,4.78-9.06.24-4.63-1.8-7.71-4.85-11a25.8,25.8,0,0,0-1.08-4.41,1.31,1.31,0,0,1,.56-1.62,13.88,13.88,0,0,0,4.81-5.85,1.25,1.25,0,0,1,1.46-.77c1.3.14,2.39.7,3.77.36,4.39-1.11,6.85-3.44,8.63-7.6a1.17,1.17,0,0,0,0-.2,24.9,24.9,0,0,1,6-10.6,16.78,16.78,0,0,1,2.07-1.71,112.61,112.61,0,0,1,40-18c12.8-2.92,26.35-6.5,36.53-14.39,8.85-6.87,13-14.56,19.75-22.78C660.4,167.45,659.6,163.73,658.46,160.15Z"/></clipPath><linearGradient id="linear-gradient-2" x1="167.94" y1="974" x2="167.94" y2="825.03" gradientTransform="matrix(1, -0.01, 0.01, 1, -96.39, 6.81)" gradientUnits="userSpaceOnUse"><stop offset="0" stop-color="#818181"/><stop offset="1" stop-color="#777"/></linearGradient><linearGradient id="linear-gradient-3" x1="245.94" y1="891.62" x2="245.94" y2="718.53" gradientTransform="translate(-192.79 13.61) rotate(-1.4)" gradientUnits="userSpaceOnUse"><stop offset="0" stop-color="#8a8a8a"/><stop offset="1" stop-color="#767676"/></linearGradient><linearGradient id="linear-gradient-4" x1="383.91" y1="794.47" x2="383.91" y2="644.86" gradientTransform="matrix(1, -0.04, 0.04, 1, -289.18, 20.42)" gradientUnits="userSpaceOnUse"><stop offset="0" stop-color="#949494"/><stop offset="0.26" stop-color="#8b8b8b"/><stop offset="1" stop-color="#767676"/></linearGradient><linearGradient id="linear-gradient-5" x1="525.79" y1="724.76" x2="525.79" y2="584.84" gradientTransform="translate(-385.57 27.23) rotate(-2.8)" gradientUnits="userSpaceOnUse"><stop offset="0" stop-color="#9d9d9d"/><stop offset="0.41" stop-color="#8b8b8b"/><stop offset="1" stop-color="#767676"/></linearGradient><linearGradient id="linear-gradient-6" x1="664.14" y1="665.31" x2="664.14" y2="527.49" gradientTransform="translate(-481.97 34.04) rotate(-3.51)" gradientUnits="userSpaceOnUse"><stop offset="0" stop-color="#a7a7a7"/><stop offset="0.52" stop-color="#8b8b8b"/><stop offset="1" stop-color="#767676"/></linearGradient><linearGradient id="linear-gradient-7" x1="807.3" y1="614.18" x2="807.3" y2="474.47" gradientTransform="matrix(1, -0.07, 0.07, 1, -578.36, 40.84)" gradientUnits="userSpaceOnUse"><stop offset="0" stop-color="#b0b0b0"/><stop offset="0.59" stop-color="#8a8a8a"/><stop offset="1" stop-color="#757575"/></linearGradient><linearGradient id="linear-gradient-8" x1="954.13" y1="563.16" x2="954.13" y2="414.07" gradientTransform="translate(-674.75 47.65) rotate(-4.91)" gradientUnits="userSpaceOnUse"><stop offset="0" stop-color="#bbb"/><stop offset="0.65" stop-color="#8a8a8a"/><stop offset="1" stop-color="#757575"/></linearGradient><linearGradient id="linear-gradient-9" x1="1114.37" y1="509.99" x2="1114.37" y2="345.6" gradientTransform="translate(-771.15 54.46) rotate(-5.61)" gradientUnits="userSpaceOnUse"><stop offset="0" stop-color="#c4c4c4"/><stop offset="0.04" stop-color="silver"/><stop offset="0.69" stop-color="#898989"/><stop offset="1" stop-color="#747474"/></linearGradient><linearGradient id="linear-gradient-10" x1="1290.75" y1="461.31" x2="1290.75" y2="308.4" gradientTransform="translate(-867.54 61.26) rotate(-6.32)" gradientUnits="userSpaceOnUse"><stop offset="0" stop-color="#cdcdcd"/><stop offset="0.13" stop-color="silver"/><stop offset="0.71" stop-color="#898989"/><stop offset="1" stop-color="#747474"/></linearGradient><linearGradient id="linear-gradient-11" x1="1463.19" y1="428.27" x2="1463.19" y2="278.17" gradientTransform="matrix(0.99, -0.12, 0.12, 0.99, -963.93, 68.07)" gradientUnits="userSpaceOnUse"><stop offset="0" stop-color="#d7d7d7"/><stop offset="0.2" stop-color="silver"/><stop offset="0.74" stop-color="#898989"/><stop offset="1" stop-color="#747474"/></linearGradient><linearGradient id="linear-gradient-12" x1="1629.56" y1="401.48" x2="1629.56" y2="251.79" gradientTransform="translate(-1060.33 74.88) rotate(-7.72)" gradientUnits="userSpaceOnUse"><stop offset="0" stop-color="#e1e1e1"/><stop offset="0.27" stop-color="silver"/><stop offset="0.76" stop-color="#898989"/><stop offset="1" stop-color="#747474"/></linearGradient><linearGradient id="linear-gradient-13" x1="-1407.78" y1="12535.7" x2="-648.81" y2="12535.7" gradientTransform="matrix(-1.4, -0.05, -0.42, -1.34, 4271.97, 17346.6)" gradientUnits="userSpaceOnUse"><stop offset="0" stop-color="#626262"/><stop offset="0.04" stop-color="#727272"/><stop offset="0.11" stop-color="#9c9c9c"/><stop offset="0.21" stop-color="#e0e0e0"/><stop offset="0.21" stop-color="#e1e1e1"/><stop offset="0.47" stop-color="#cecece"/><stop offset="0.99" stop-color="#9e9e9e"/><stop offset="1" stop-color="#9d9d9d"/></linearGradient></defs><title>Sombra_img</title><g class="cls-3"><g id="Layer_2" data-name="Layer 2"><g id="Layer_2-2" data-name="Layer 2"><g class="cls-4"><g id="foguete" class="cls-5"><polygon class="cls-6" points="592.45 200.63 592.45 200.63 592.45 200.63 592.45 200.63"/><path class="cls-6" d="M592.5,200.1c-.23,1.13,0,1,0,0a45.31,45.31,0,0,1,.25-4.88.94.94,0,0,1,.57-.48C593.12,196.17,592.72,199,592.5,200.1Z"/><path class="cls-7" d="M666.22,157.82c.49,2.47,1.28,4.79,1.91,7.2a33.23,33.23,0,0,0,7.72-22c6.71-4.39,13.85-8.35,19.58-14,13.74-13.6,22.82-29.7,28.74-48-18.8,4.14-35.67,11.67-50.51,24.06-6.19,5.17-10.81,11.9-15.82,18.17a33.18,33.18,0,0,0-22.64,5.6c2.34.86,4.57,1.86,7,2.58,8.12-1,16.34-3.13,22.52,3.66S668,149.82,666.22,157.82Z"/><path class="cls-7" d="M644.94,153a141.08,141.08,0,0,1,6.43-18.09c4.34-.8,9.74-3.79,13.31.14s.09,9-1.12,13.26A139.39,139.39,0,0,1,644.94,153Z"/><g class="cls-8"><path class="cls-9" d="M137.43,937.58c25.86,13.79,32.95,13.31,24.81,47.12s-37.72,61.11-84.77,65-60-52.76-47.46-90.94S111.58,923.79,137.43,937.58Z"/><path class="cls-10" d="M120.31,853.46c22.39,20.94,63.7,81.12,24.82,95.3S82.73,993.93,35.2,968.29,4,894.7,22.76,853.28,97.92,832.51,120.31,853.46Z"/><path class="cls-11" d="M140.67,781.22c8.4,41.53,7.07,58.75-16.36,92.53s-76,29.36-108.39,2.49S3.44,738.74,50,727.68,132.27,739.68,140.67,781.22Z"/><path class="cls-12" d="M194,714.07c9,45-19.8,69.5-62,81.67S54,789.35,46.42,744.23s14.67-87.72,60.35-93.73S185,669.05,194,714.07Z"/><path class="cls-13" d="M240.27,645.33c10.4,40.52-14,71.64-54.86,77.65S107.55,702.62,100,662.06s10.63-71.8,52.23-76.65S229.86,604.8,240.27,645.33Z"/><path class="cls-14" d="M286.6,582.56c8.84,39.66-14.05,67.9-53.36,72.57s-77.82-20.64-87.67-59.36,14-73.74,54.35-76.23S277.75,542.9,286.6,582.56Z"/><path class="cls-15" d="M337,514.81c7.69,40.15-16.44,73.34-57.23,77.3a80.76,80.76,0,0,1-87-62.59c-9-40,18.49-69.2,57.69-74.82S329.31,474.65,337,514.81Z"/><path class="cls-16" d="M390.11,438c5,43.46-17.06,80.66-60.81,87.17s-80-15.62-87.93-60.39,21-75,63.7-85.62S385.09,394.55,390.11,438Z"/><path class="cls-17" d="M462.25,365.46c-3.71,43.91-38.92,81.16-82.56,87.3s-79.15-16.69-86.6-62.64,54.37-104.74,99.53-102.92S466,321.56,462.25,365.46Z"/><path class="cls-18" d="M534.89,307.83c-6.87,44.44-41.75,71-88.13,70.65s-68.62-29.2-71.35-73.77,51.48-83.33,93.46-80.43S541.77,263.4,534.89,307.83Z"/><path class="cls-19" d="M606.09,243.54c-2.89,43.19-40.85,74.29-84,71.26S450.31,276.76,455,233s36.47-70.4,80-67.74S609,200.36,606.09,243.54Z"/><path class="cls-20" d="M672.92,184c2.06,41.42-37.51,73.36-79.68,70.29s-69.86-39.61-68.88-79.8,37.13-70.59,76.64-69.7S670.85,142.56,672.92,184Z"/><path class="cls-21" d="M663.32,8.94c37.59,25.89,71,54.29,106.87,82.25,18.87,14.7,14.94,31.63,6.55,42.49C628.92,325.22,91.06,791,235,983c8.16,10.88,6.11,30.65-11.1,46.91-32.74,30.92-64.07,65.75-102.17,98.88-20,17.41-21.74,14.72-38.48-4.85C-212.15,778.8,416,267.59,618.52,12.36,630-2.11,643.56-4.67,663.32,8.94Z"/></g></g></g></g></g></g></svg>