<svg xmlns="http://www.w3.org/2000/svg" xmlns:xlink="http://www.w3.org/1999/xlink" viewBox="0 0 112.06 121.5"><defs><style>.cls-1{fill:none;}.cls-2{isolation:isolate;}.cls-3,.cls-4{fill:#2ac7f2;}.cls-4{mix-blend-mode:overlay;}.cls-5{opacity:0.74;}.cls-6{clip-path:url(#clip-path);}.cls-7{fill:#29824f;}.cls-8{fill:#fff;}</style><clipPath id="clip-path"><circle class="cls-1" cx="56.03" cy="60.53" r="28.19"/></clipPath></defs><title>Terra</title><g class="cls-2"><g id="Layer_2" data-name="Layer 2"><g id="Layer_2-2" data-name="Layer 2"><circle class="cls-3" cx="56.03" cy="60.53" r="28.19"/><circle class="cls-4" cx="56.03" cy="60.53" r="39.92"/><circle class="cls-4" cx="56.03" cy="60.53" r="56.03"/><g class="cls-5"><g class="cls-6"><path class="cls-7" d="M77,59c-4.21,7.8-11.84,12.87-17.79,19.24A3,3,0,0,0,59.84,83c5.2,3,11.06.13,15.18-3.22,1.63-1.33,3.78-2.2,4.76-4.18,1.33-2.68-.15-5.6-.48-8.31a3,3,0,0,0-5.59-1.51c-1.47,1.91-4,2.34-5.42,4.45-.92,1.41-1,5.86-2.64,6.35l2.91,5c5.63-6.06,13.53-14,14.39-22.71a16.13,16.13,0,0,0-2.62-10c-.93-1.58-2.07-3-2.9-4.68-.58-1.14-.77-4.18-1.77-2.47s.37,3.49,0,5.57h5.78A17.47,17.47,0,0,0,69,35.32c-3.73-1-5.32,4.77-1.6,5.79a11.28,11.28,0,0,1,8.21,7.78c.83,2.62,5.21,3.09,5.78,0,.83-4.45-.13-11.17-5-13.25C72.2,33.8,70,37.78,70.34,41.48c.49,5.85,6.34,9.71,6.71,15.42.49,7.38-8.17,15.5-12.73,20.42-2,2.11-.06,5.92,2.92,5s4.52-3.07,5.39-6c.62-2.1.89-2.79,2.67-4.19a17.82,17.82,0,0,0,3.59-3.35L73.3,67.26c.15,1.25,1,3.35.87,4.55-.11,1.59-.51,1.47-1.82,2.43-2.48,1.79-6,5.52-9.48,3.55l.61,4.71C69.79,75.73,77.72,70.35,82.2,62,84,58.65,78.85,55.61,77,59Z"/><circle class="cls-8" cx="64.97" cy="19.25" r="19.25"/><circle class="cls-8" cx="43.22" cy="102.25" r="19.25"/><path class="cls-7" d="M28.26,54.6c-5.3,7-13.84,10.86-20.63,16.18a3,3,0,0,0,0,4.24c4.84,3.87,10.93,2.24,15.68-.67,1.85-1.13,4.14-1.52,5.45-3.41,1.7-2.46.69-5.93.78-8.69s-3.3-3.85-5.12-2.12-4.33,1.79-6,3.56c-1.5,1.55-1.95,5.85-4.25,6.18l2.91,5C23.78,69.57,33.74,62.26,34.8,53c.47-4.18-1.32-7.75-2.85-11.51-.92-2.27-1.68-4.1-.8-6.48.39-1,1.11-2.24,1.6-3.28L29.36,33.1l.12,0-2.09-2.09c1.54,6,5.34,11.17,12,11.12,3.05,0,8.36-1.2,10.08-4.12a2.94,2.94,0,0,0,0-3,3.17,3.17,0,0,0-2.74-1.52l2.89,2.2c-.92-5-5.91-2.25-8.14-.16-2.48,2.33-8,9.72-11.09,5-2.08-3.24-7.28-.24-5.18,3,2.94,4.6,7.51,6,12.34,3.25a29.33,29.33,0,0,0,5.86-4.68A27.57,27.57,0,0,0,46,39.56c.19-.25.73-.49.84-.78a1,1,0,0,1,.27-.19q1.77-1-3.23-1.29a3,3,0,0,0,2.89,2.2h.12L44.31,38l0,0V35c.65-1.1-.86.2-1.64.49a8.46,8.46,0,0,1-4.33.59C33.29,35.18,35,28.73,31,27.31a3,3,0,0,0-3.39,1.38c-.88,1.89-2.25,3.58-2.71,5.61-.84,3.71.63,7.17,2,10.53C29.48,50.94,29,55,24.44,60.1A92.32,92.32,0,0,1,12.8,70.64c-2.67,2.1.39,5.37,2.92,5,3-.42,4.48-2.56,5.8-5.1,1-1.91,1.45-2.67,3.34-3.7a16,16,0,0,0,3.8-2.48l-5.12-2.12c0,1.1.39,2.75.18,3.82-.46,2.32-1.33,1.9-3,2.88-2.13,1.25-6.36,3.81-8.84,1.83V75c7.36-5.76,15.81-9.81,21.57-17.4,2.34-3.07-2.87-6.06-5.18-3Z"/></g></g></g></g></g></svg>