<svg xmlns="http://www.w3.org/2000/svg" viewBox="0 0 98.01 31.06"><defs><style>.cls-1{fill:none;}.cls-2{fill:#f2f2f2;}</style></defs><title>UFRN_logo</title><g id="Layer_2" data-name="Layer 2"><g id="Layer_2-2" data-name="Layer 2"><path class="cls-1" d="M77.59,27h-.41l-.4,2.43h.5a1.09,1.09,0,0,0,.86-.38,1.5,1.5,0,0,0,.33-1,1.16,1.16,0,0,0-.23-.77A.8.8,0,0,0,77.59,27Z"/><path class="cls-1" d="M80.69,27a1,1,0,0,0-.82.41,1.7,1.7,0,0,0-.33,1.06,1.23,1.23,0,0,0,.25.8.79.79,0,0,0,.65.3,1,1,0,0,0,.82-.41A1.66,1.66,0,0,0,81.58,28a1.23,1.23,0,0,0-.24-.8A.78.78,0,0,0,80.69,27Z"/><path class="cls-1" d="M21.5,27h-.41l-.39,2.43h.49a1.07,1.07,0,0,0,.86-.38,1.5,1.5,0,0,0,.33-1,1.16,1.16,0,0,0-.23-.77A.79.79,0,0,0,21.5,27Z"/><polygon class="cls-1" points="18.64 28.47 19.48 28.47 19.27 27.08 18.64 28.47"/><path class="cls-1" d="M16.51,27H16.1l-.39,2.43h.49a1.11,1.11,0,0,0,.87-.38,1.55,1.55,0,0,0,.32-1,1.16,1.16,0,0,0-.22-.77A.82.82,0,0,0,16.51,27Z"/><path class="cls-1" d="M87.83,27a1,1,0,0,0-.82.41,1.69,1.69,0,0,0-.32,1.06,1.23,1.23,0,0,0,.25.8.79.79,0,0,0,.65.3,1,1,0,0,0,.82-.41A1.72,1.72,0,0,0,88.73,28a1.23,1.23,0,0,0-.24-.8A.8.8,0,0,0,87.83,27Z"/><path class="cls-1" d="M71.82,27h-.41L71,29.44h.49a1.09,1.09,0,0,0,.86-.38,1.5,1.5,0,0,0,.33-1,1.16,1.16,0,0,0-.22-.77A.82.82,0,0,0,71.82,27Z"/><path class="cls-1" d="M57.24,27a1,1,0,0,0-.82.41,1.69,1.69,0,0,0-.32,1.06,1.23,1.23,0,0,0,.24.8.83.83,0,0,0,.66.3,1,1,0,0,0,.81-.41A1.67,1.67,0,0,0,58.14,28a1.23,1.23,0,0,0-.24-.8A.82.82,0,0,0,57.24,27Z"/><path class="cls-1" d="M61.76,6.92a4.06,4.06,0,0,0-2.41-.78h-4.8l-.64,5.47h4.87a4.87,4.87,0,0,0,2.69-.74,2.85,2.85,0,0,0,1.25-2.1A1.94,1.94,0,0,0,61.76,6.92Z"/><polygon class="cls-1" points="66.2 28.47 67.03 28.47 66.83 27.08 66.2 28.47"/><path class="cls-1" d="M46.69,27h-.41l-.39,2.43h.49a1.07,1.07,0,0,0,.86-.38,1.5,1.5,0,0,0,.33-1,1.16,1.16,0,0,0-.23-.77A.8.8,0,0,0,46.69,27Z"/><path class="cls-1" d="M49.79,27a1,1,0,0,0-.82.41,1.63,1.63,0,0,0-.32,1.06,1.23,1.23,0,0,0,.24.8.79.79,0,0,0,.65.3,1,1,0,0,0,.82-.41A1.72,1.72,0,0,0,50.68,28a1.23,1.23,0,0,0-.24-.8A.78.78,0,0,0,49.79,27Z"/><polygon class="cls-2" points="40.56 28.47 41.39 28.47 41.19 27.08 40.56 28.47"/><path class="cls-2" d="M32.34,27h-.4l-.4,2.43H32a1.11,1.11,0,0,0,.87-.38,1.55,1.55,0,0,0,.32-1,1.16,1.16,0,0,0-.22-.77A.81.81,0,0,0,32.34,27Z"/><path class="cls-2" d="M47.32,6.48H35l-.56,4.72H45.7l-.53,4.56H33.89l-1,8.71h-7.1L25,31.06H44.51l.81-6.59h-.09ZM27.9,27h-1l-.15.94h1l-.07.45h-1l-.24,1.45H26l.55-3.31H28Zm2.51,0h-1l-.15.94h1l-.08.45h-1l-.17,1h1l-.08.47H28.49L29,26.57h1.45Zm2.79,2.33a1.46,1.46,0,0,1-1.17.51h-1l.54-3.31h.74a1.21,1.21,0,0,1,1,.38A1.52,1.52,0,0,1,33.64,28,2,2,0,0,1,33.2,29.37ZM36.27,27h-1l-.15.94h1l-.07.45H35l-.17,1h1l-.07.47H34.35l.55-3.31h1.46ZM39,28.31a1,1,0,0,1-.68.33l.58,1.24h-.46l-.75-1.62h.07a1.6,1.6,0,0,0,.76-.12.61.61,0,0,0,.21-.24.72.72,0,0,0,.08-.32.54.54,0,0,0-.15-.41A.59.59,0,0,0,38.2,27h-.39l-.47,2.84h-.41l.54-3.31h.71a1.07,1.07,0,0,1,.77.26,1,1,0,0,1,.27.73A1.11,1.11,0,0,1,39,28.31Zm2.66,1.57-.17-.95H40.35l-.43.95h-.45L41,26.57h.47l.57,3.31Zm2.49,0H42.76l.55-3.31h.41l-.47,2.84h1Z"/><polygon class="cls-2" points="47.89 1.98 48.1 1.98 48.34 0 28.68 0 28.45 1.98 47.85 1.98 47.89 1.98"/><polygon class="cls-2" points="28.45 1.98 28.44 1.98 28.01 5.7 28.45 1.98"/><path class="cls-2" d="M17.47,27a1.24,1.24,0,0,0-1-.38h-.74l-.54,3.31h1a1.46,1.46,0,0,0,1.17-.51A2,2,0,0,0,17.81,28,1.52,1.52,0,0,0,17.47,27Zm-.4,2.11a1.11,1.11,0,0,1-.87.38h-.49L16.1,27h.41a.82.82,0,0,1,.66.27,1.16,1.16,0,0,1,.22.77A1.55,1.55,0,0,1,17.07,29.06Z"/><path class="cls-2" d="M19.09,26.57l-1.54,3.31H18l.44-.95h1.12l.16.95h.42l-.57-3.31Zm-.45,1.9.63-1.39.21,1.39Z"/><polygon class="cls-2" points="22.9 29.88 24.35 29.88 24.43 29.41 23.39 29.41 23.55 28.43 24.59 28.43 24.66 27.98 23.63 27.98 23.78 27.04 24.82 27.04 24.9 26.57 23.45 26.57 22.9 29.88"/><path class="cls-2" d="M21.5,26.57h-.74l-.54,3.31h1a1.46,1.46,0,0,0,1.17-.51A2,2,0,0,0,22.8,28,1.52,1.52,0,0,0,22.46,27,1.24,1.24,0,0,0,21.5,26.57Zm.55,2.49a1.07,1.07,0,0,1-.86.38H20.7L21.09,27h.41a.79.79,0,0,1,.65.27,1.16,1.16,0,0,1,.23.77A1.5,1.5,0,0,1,22.05,29.06Z"/><polygon class="cls-2" points="4.9 29.88 5.31 29.88 5.86 26.57 5.44 26.57 4.9 29.88"/><polygon class="cls-2" points="14.88 26.57 14.33 29.88 14.75 29.88 15.29 26.57 14.88 26.57"/><polygon class="cls-2" points="8 26.57 6.77 29.34 6.41 26.57 5.99 26.57 6.45 29.88 6.95 29.88 8.45 26.57 8 26.57"/><polygon class="cls-2" points="4.53 26.57 4.09 29.22 3.3 26.57 2.73 26.57 2.18 29.88 2.6 29.88 3.05 27.15 3.86 29.88 4.4 29.88 4.95 26.57 4.53 26.57"/><path class="cls-2" d="M1.79,26.57l-.32,2a1.94,1.94,0,0,1-.23.75.45.45,0,0,1-.4.19.36.36,0,0,1-.31-.12A.45.45,0,0,1,.41,29a1.34,1.34,0,0,1,0-.19c0-.07,0-.14,0-.23l.33-2H.37l-.32,2a2.7,2.7,0,0,0,0,.28,2.09,2.09,0,0,0,0,.24.88.88,0,0,0,.22.63A.78.78,0,0,0,.81,30a1.12,1.12,0,0,0,.5-.12.88.88,0,0,0,.32-.34,3.08,3.08,0,0,0,.23-.83s0-.07,0-.09l.33-2Z"/><path class="cls-2" d="M13.91,27.46h.42v-.1a.87.87,0,0,0-.2-.62.7.7,0,0,0-.55-.23.8.8,0,0,0-.61.26,1,1,0,0,0-.24.67,1,1,0,0,0,0,.31.64.64,0,0,0,.15.25,1.43,1.43,0,0,0,.4.33l.1.07a.9.9,0,0,1,.28.28.45.45,0,0,1,.07.27.58.58,0,0,1-.13.38.41.41,0,0,1-.33.16.39.39,0,0,1-.33-.15.69.69,0,0,1-.11-.43v0a.11.11,0,0,0,0-.05h-.43v.09a1.18,1.18,0,0,0,.22.77.76.76,0,0,0,.63.27.84.84,0,0,0,.65-.29,1.06,1.06,0,0,0,.26-.74.93.93,0,0,0-.11-.47,1,1,0,0,0-.3-.36l-.15-.1c-.33-.22-.49-.42-.49-.59a.45.45,0,0,1,.12-.32.34.34,0,0,1,.27-.13.34.34,0,0,1,.27.12.48.48,0,0,1,.1.33v.06Z"/><polygon class="cls-2" points="10.01 27.04 10.09 26.57 8.63 26.57 8.09 29.88 9.54 29.88 9.62 29.41 8.58 29.41 8.74 28.43 9.78 28.43 9.86 27.98 8.82 27.98 8.97 27.04 10.01 27.04"/><path class="cls-2" d="M11.31,26.57h-.72l-.54,3.31h.41L10.93,27h.39a.57.57,0,0,1,.43.14.54.54,0,0,1,.15.41.72.72,0,0,1-.08.32.52.52,0,0,1-.2.24,1.65,1.65,0,0,1-.77.12h-.07l.75,1.62H12l-.57-1.24a1,1,0,0,0,.68-.33,1.16,1.16,0,0,0,.24-.75,1,1,0,0,0-.27-.73A1.06,1.06,0,0,0,11.31,26.57Z"/><path class="cls-2" d="M49.82,26.51a1.41,1.41,0,0,0-.62.13,1.39,1.39,0,0,0-.5.37,1.93,1.93,0,0,0-.35.63,2.58,2.58,0,0,0-.12.8,1.63,1.63,0,0,0,.35,1.1,1.2,1.2,0,0,0,1,.41,1.32,1.32,0,0,0,.73-.2,1.41,1.41,0,0,0,.55-.56,1.79,1.79,0,0,0,.22-.53A2.65,2.65,0,0,0,51.1,28a1.68,1.68,0,0,0-.35-1.11A1.16,1.16,0,0,0,49.82,26.51Zm.54,2.6a1,1,0,0,1-.82.41.79.79,0,0,1-.65-.3,1.23,1.23,0,0,1-.24-.8A1.63,1.63,0,0,1,49,27.36a1,1,0,0,1,.82-.41.78.78,0,0,1,.65.29,1.23,1.23,0,0,1,.24.8A1.72,1.72,0,0,1,50.36,29.11Z"/><path class="cls-2" d="M53.57,26.57h-.71l-.55,3.31h.42L53.2,27h.39a.56.56,0,0,1,.42.14.51.51,0,0,1,.16.41.72.72,0,0,1-.08.32.61.61,0,0,1-.21.24,1.63,1.63,0,0,1-.76.12h-.07l.75,1.62h.46l-.58-1.24a1,1,0,0,0,.68-.33,1.11,1.11,0,0,0,.25-.75,1,1,0,0,0-.27-.73A1.09,1.09,0,0,0,53.57,26.57Z"/><path class="cls-2" d="M46.69,26.57H46l-.54,3.31h1a1.44,1.44,0,0,0,1.16-.51A2,2,0,0,0,48,28,1.57,1.57,0,0,0,47.65,27,1.24,1.24,0,0,0,46.69,26.57Zm.55,2.49a1.07,1.07,0,0,1-.86.38h-.49L46.28,27h.41a.8.8,0,0,1,.65.27,1.16,1.16,0,0,1,.23.77A1.5,1.5,0,0,1,47.24,29.06Z"/><polygon class="cls-2" points="93.49 26.57 91.87 26.57 91.79 27.03 92.42 27.03 91.94 29.88 92.36 29.88 92.83 27.03 93.42 27.03 93.49 26.57"/><polygon class="cls-2" points="85.32 29.22 84.53 26.57 83.97 26.57 83.42 29.88 83.83 29.88 84.28 27.15 85.09 29.88 85.64 29.88 86.18 26.57 85.77 26.57 85.32 29.22"/><polygon class="cls-2" points="54.64 29.88 55.05 29.88 55.59 26.57 55.19 26.57 54.64 29.88"/><path class="cls-2" d="M77.59,26.57h-.75l-.53,3.31h1a1.45,1.45,0,0,0,1.16-.51A2,2,0,0,0,78.89,28,1.52,1.52,0,0,0,78.55,27,1.24,1.24,0,0,0,77.59,26.57Zm.55,2.49a1.09,1.09,0,0,1-.86.38h-.5l.4-2.43h.41a.8.8,0,0,1,.65.27,1.16,1.16,0,0,1,.23.77A1.5,1.5,0,0,1,78.14,29.06Z"/><path class="cls-2" d="M80.71,26.51a1.47,1.47,0,0,0-1.11.5,1.93,1.93,0,0,0-.35.63,2.58,2.58,0,0,0-.12.8,1.63,1.63,0,0,0,.35,1.1,1.2,1.2,0,0,0,1,.41,1.32,1.32,0,0,0,.73-.2,1.41,1.41,0,0,0,.55-.56,1.79,1.79,0,0,0,.22-.53A2.65,2.65,0,0,0,82,28a1.68,1.68,0,0,0-.35-1.11A1.17,1.17,0,0,0,80.71,26.51Zm.55,2.6a1,1,0,0,1-.82.41.79.79,0,0,1-.65-.3,1.23,1.23,0,0,1-.25-.8,1.7,1.7,0,0,1,.33-1.06,1,1,0,0,1,.82-.41.78.78,0,0,1,.65.29,1.23,1.23,0,0,1,.24.8A1.66,1.66,0,0,1,81.26,29.11Z"/><polygon class="cls-2" points="93.23 29.88 94.68 29.88 94.75 29.41 93.72 29.41 93.88 28.43 94.92 28.43 94.99 27.98 93.95 27.98 94.1 27.04 95.15 27.04 95.23 26.57 93.77 26.57 93.23 29.88"/><path class="cls-2" d="M90.48,26.57h-.71l-.54,3.31h.41L90.11,27h.39a.57.57,0,0,1,.43.14.54.54,0,0,1,.15.41.72.72,0,0,1-.08.32.68.68,0,0,1-.2.24,1.68,1.68,0,0,1-.77.12H90l.75,1.62h.46l-.58-1.24a1,1,0,0,0,.68-.33,1.11,1.11,0,0,0,.25-.75,1,1,0,0,0-.27-.73A1.07,1.07,0,0,0,90.48,26.57Z"/><path class="cls-2" d="M87.86,26.51a1.47,1.47,0,0,0-1.11.5,1.79,1.79,0,0,0-.36.63,2.58,2.58,0,0,0-.12.8,1.63,1.63,0,0,0,.35,1.1,1.22,1.22,0,0,0,1,.41,1.34,1.34,0,0,0,.73-.2,1.48,1.48,0,0,0,.55-.56,2.09,2.09,0,0,0,.21-.53,2.65,2.65,0,0,0,.07-.63,1.67,1.67,0,0,0-.34-1.11A1.2,1.2,0,0,0,87.86,26.51Zm.55,2.6a1,1,0,0,1-.82.41.79.79,0,0,1-.65-.3,1.23,1.23,0,0,1-.25-.8A1.69,1.69,0,0,1,87,27.36a1,1,0,0,1,.82-.41.8.8,0,0,1,.66.29,1.23,1.23,0,0,1,.24.8A1.72,1.72,0,0,1,88.41,29.11Z"/><polygon class="cls-2" points="73.22 29.88 74.67 29.88 74.75 29.41 73.71 29.41 73.88 28.43 74.91 28.43 74.98 27.98 73.94 27.98 74.1 27.04 75.14 27.04 75.22 26.57 73.76 26.57 73.22 29.88"/><path class="cls-2" d="M61.31,28.68h1.28a1.35,1.35,0,0,1-.41.61,1,1,0,0,1-.64.23.77.77,0,0,1-.65-.31,1.26,1.26,0,0,1-.25-.81,1.6,1.6,0,0,1,.33-1,1,1,0,0,1,.82-.41.79.79,0,0,1,.54.18,1,1,0,0,1,.31.53h.44a1.54,1.54,0,0,0-.45-.86,1.24,1.24,0,0,0-.84-.29,1.33,1.33,0,0,0-.63.15,1.43,1.43,0,0,0-.5.4,2.11,2.11,0,0,0-.33.61,2.53,2.53,0,0,0-.11.73,1.69,1.69,0,0,0,.35,1.14,1.22,1.22,0,0,0,1,.41,1.36,1.36,0,0,0,1.06-.46,2.09,2.09,0,0,0,.51-1.23H61.38Z"/><path class="cls-2" d="M71.82,26.57h-.74l-.54,3.31h1a1.46,1.46,0,0,0,1.17-.51A2,2,0,0,0,73.12,28,1.52,1.52,0,0,0,72.78,27,1.21,1.21,0,0,0,71.82,26.57Zm.55,2.49a1.09,1.09,0,0,1-.86.38H71L71.41,27h.41a.82.82,0,0,1,.66.27,1.16,1.16,0,0,1,.22.77A1.5,1.5,0,0,1,72.37,29.06Z"/><path class="cls-2" d="M57.27,26.51a1.44,1.44,0,0,0-.62.13,1.58,1.58,0,0,0-.5.37,1.93,1.93,0,0,0-.35.63,2.58,2.58,0,0,0-.12.8,1.63,1.63,0,0,0,.35,1.1A1.22,1.22,0,0,0,57,30a1.36,1.36,0,0,0,.73-.2,1.56,1.56,0,0,0,.55-.56,2.09,2.09,0,0,0,.21-.53,2.65,2.65,0,0,0,.07-.63,1.67,1.67,0,0,0-.34-1.11A1.2,1.2,0,0,0,57.27,26.51Zm.54,2.6a1,1,0,0,1-.81.41.83.83,0,0,1-.66-.3,1.23,1.23,0,0,1-.24-.8,1.69,1.69,0,0,1,.32-1.06,1,1,0,0,1,.82-.41.82.82,0,0,1,.66.29,1.23,1.23,0,0,1,.24.8A1.67,1.67,0,0,1,57.81,29.11Z"/><path class="cls-2" d="M65.23,28.31a1.17,1.17,0,0,0,.25-.75,1,1,0,0,0-.27-.73,1.1,1.1,0,0,0-.77-.26h-.71l-.55,3.31h.41L64.06,27h.39a.57.57,0,0,1,.43.14.54.54,0,0,1,.15.41.71.71,0,0,1-.07.32.61.61,0,0,1-.21.24,1.65,1.65,0,0,1-.77.12h-.07l.76,1.62h.45l-.57-1.23A1,1,0,0,0,65.23,28.31Z"/><path class="cls-2" d="M66.65,26.57l-1.53,3.3h.44l.43-.95h1.12l.16.95h.42l-.57-3.31Zm-.45,1.9.63-1.39.2,1.39Z"/><polygon class="cls-2" points="70.18 26.57 69.74 29.22 68.94 26.57 68.38 26.57 67.83 29.88 68.24 29.88 68.69 27.15 69.5 29.88 70.05 29.88 70.59 26.57 70.18 26.57"/><path class="cls-2" d="M91.29,2,89.56,16.87,81.53,2H71.3L68.76,23.92l-.05-6.37c-.17-1.87-.55-3-2.31-3.61a6.88,6.88,0,0,0-1.7-.4l0-.28a8.77,8.77,0,0,0,3.73-1.88A5.34,5.34,0,0,0,70.31,8,4.51,4.51,0,0,0,68,3.4,9.66,9.66,0,0,0,62.73,2H48.1L45.32,24.47h7.1l1-8.78,2.7.07c1.67.05,2.88.07,3.6.07a3.4,3.4,0,0,1,1.11.94A3.29,3.29,0,0,1,61.27,18l-.2,6.48H75.41L77.18,9.24l8.46,15.23h9.75L98,2ZM61.47,10.87a4.87,4.87,0,0,1-2.69.74H53.91l.64-5.47h4.8a4.06,4.06,0,0,1,2.41.78,1.94,1.94,0,0,1,1,1.85A2.85,2.85,0,0,1,61.47,10.87Z"/><path class="cls-2" d="M21.25,2,19.8,14.52a7.17,7.17,0,0,1-2.28,4.79,5.93,5.93,0,0,1-4,1.42,4.3,4.3,0,0,1-3.69-1.65,6.22,6.22,0,0,1-.89-4.56L10.37,2H3.19L1.73,14.52q-.63,5.41,1.79,7.86Q6.15,25,13.3,25t10.34-2.91a10.09,10.09,0,0,0,2.95-5.36L28.3,2Z"/><polygon class="cls-2" points="47.89 1.98 47.37 6.48 47.32 6.48 45.23 24.47 45.32 24.47 48.1 1.98 47.89 1.98"/><path class="cls-2" d="M28,5.7,28.44,2H28.3L26.59,16.75c.11-.44.19-.91.27-1.39Z"/><polygon class="cls-2" points="47.32 6.48 47.37 6.48 47.89 1.98 47.85 1.98 47.32 6.48"/><path class="cls-2" d="M27,14.52,28,5.7l-1.15,9.66C26.9,15.08,27,14.81,27,14.52Z"/></g></g></svg>